<svg xmlns="http://www.w3.org/2000/svg" width="76" height="16" viewBox="0 0 76 16" fill="none">
  <g clip-path="url(#clip0_85_1566)">
    <path d="M3.88421 15.1526C3.53446 15.1526 3.18886 15.1365 2.84737 15.1044V14.9579V14.3056C3.18777 14.3655 3.54422 14.3947 3.91579 14.3947C4.49302 14.3947 5.01442 14.2197 5.45789 13.8656C5.90833 13.5115 6.2315 13.0052 6.45022 12.3881C6.67149 11.7638 6.77368 11.0191 6.77368 10.1684C6.77368 8.97946 6.60289 8.01404 6.17614 7.3681C5.76675 6.73802 5.1921 6.36444 4.46689 6.36316C3.90229 6.35562 3.36013 6.53055 2.84737 6.85633V6.12526C3.11343 5.92784 3.41785 5.75976 3.76338 5.62263L3.7634 5.62268L3.76968 5.62009C4.14395 5.46564 4.56929 5.38421 5.05263 5.38421C5.76941 5.38421 6.32799 5.57949 6.7646 5.9424C7.2221 6.32268 7.58294 6.86074 7.83262 7.58418C8.08481 8.31485 8.21579 9.16336 8.21579 10.1368C8.21579 11.2941 8.01159 12.2266 7.63076 12.9575C7.24284 13.6948 6.72849 14.2345 6.09013 14.5967C5.44143 14.9647 4.71002 15.1526 3.88421 15.1526ZM1.84737 9.70459V12.9362C1.70608 12.868 1.56552 12.792 1.42567 12.7081L1.00961 12.4585L0.747595 12.8668L0.5 13.2527V0.5H1.03158C1.46326 0.5 1.61218 0.60726 1.66108 0.668836L1.66613 0.675195L1.67138 0.681386C1.75147 0.775778 1.84737 1.00953 1.84737 1.50526V5.65276C1.59454 5.87482 1.37026 6.10032 1.1762 6.32966L1.02383 6.50973L1.06592 6.74184L1.41329 8.65763L1.66334 10.0367L1.84737 9.70459ZM1.84737 14.4579H0.914879L1.3372 13.7997C1.50524 13.8837 1.6753 13.959 1.84737 14.0255V14.4579Z" fill="white" stroke="white"/>
    <path d="M23.7574 5.70674L23.7573 5.70683L23.7648 5.71767C23.8257 5.80497 23.8788 5.91728 23.9182 6.06016C23.7798 6.1896 23.6471 6.32425 23.5203 6.46415L23.3907 6.60708V6.80001V9.05264L23.9907 9.20265V15.0418C23.961 15.0442 23.9307 15.0464 23.8995 15.0485L23.8913 15.049L23.883 15.0499C23.6889 15.0693 23.495 15.079 23.3012 15.079C23.1074 15.079 22.9134 15.0693 22.7194 15.0499L22.7111 15.049L22.7028 15.0485C22.6682 15.0462 22.6343 15.0437 22.6012 15.041V5.46843H23.1328C23.5173 5.46843 23.6757 5.58285 23.7574 5.70674ZM24.9907 6.68422C24.9907 6.6087 24.9888 6.53416 24.9849 6.46073C25.2481 6.25274 25.5335 6.06184 25.8415 5.88818L25.8415 5.88819L25.845 5.88619C26.4292 5.55061 27.0521 5.38422 27.7222 5.38422C28.3047 5.38422 28.7224 5.51992 29.0201 5.74572L29.02 5.74573L29.0234 5.7482C29.3536 5.99447 29.6037 6.33037 29.7696 6.77486L29.7696 6.77487L29.7717 6.78035C29.9493 7.23971 30.0433 7.77351 30.0433 8.38948V13.179C30.0433 13.576 30.0733 13.958 30.1343 14.3243L30.1343 14.3243C30.1699 14.538 30.2225 14.7413 30.2935 14.9324C30.2335 14.9612 30.168 14.9888 30.0968 15.015L30.0968 15.015C29.8875 15.0921 29.6655 15.1316 29.4275 15.1316C29.0389 15.1316 28.8966 15.029 28.8398 14.955C28.7396 14.8157 28.6538 14.5594 28.6538 14.1158V8.93685C28.6538 8.25101 28.5679 7.65684 28.3251 7.23664C28.0354 6.72148 27.5012 6.53158 26.9222 6.53158C26.511 6.53158 26.087 6.63206 25.6557 6.81239L25.6557 6.81238L25.6526 6.81367C25.4255 6.91042 25.2049 7.02843 24.9907 7.1668V6.68422Z" fill="white" stroke="white"/>
    <path d="M36.3411 15.4842C36.1446 15.5193 35.9376 15.5439 35.7201 15.5579C35.5095 15.5719 35.3095 15.5789 35.1201 15.5789C34.9306 15.5789 34.7236 15.5719 34.499 15.5579C34.2744 15.5439 34.0639 15.5193 33.8674 15.4842V1.23157L34.0148 1.10526H36.3201V2.18947C36.3201 2.74385 36.3236 3.30175 36.3306 3.86315C36.3376 4.42454 36.3411 4.97191 36.3411 5.50525V15.4842ZM42.4779 1.10526C42.5271 1.2456 42.5587 1.4035 42.5726 1.57894C42.5937 1.75438 42.6042 1.91929 42.6042 2.07368C42.6042 2.47368 42.4918 2.76491 42.2673 2.94736C42.0428 3.1228 41.699 3.21052 41.2359 3.21052H38.2359C37.6674 3.21052 37.1446 3.20701 36.6674 3.19999C36.1972 3.18596 35.7586 3.17192 35.3516 3.15789V1.10526H42.4779ZM41.3306 7.2421C41.3727 7.3965 41.4007 7.57191 41.4148 7.76841C41.4359 7.96492 41.4464 8.1298 41.4464 8.26315C41.4464 8.40349 41.4359 8.56841 41.4148 8.75789C41.4007 8.94736 41.3727 9.12281 41.3306 9.2842H37.1306C36.8639 9.2842 36.5727 9.28071 36.2569 9.27368C35.9411 9.26664 35.6569 9.25965 35.4043 9.25262V7.27368C35.6569 7.26664 35.9411 7.25965 36.2569 7.25262C36.5727 7.24559 36.8639 7.2421 37.1306 7.2421H41.3306Z" fill="white"/>
    <path d="M48.5289 9.11579C48.4586 9.11579 48.3428 9.11579 48.1815 9.11579C48.027 9.10876 47.8691 9.10527 47.7078 9.10527C47.5533 9.09823 47.4375 9.09474 47.3605 9.09474C47.1217 9.09474 46.8763 9.09823 46.6236 9.10527C46.3782 9.1123 46.1323 9.11579 45.8868 9.11579V7.01053C46.1323 7.01053 46.3782 7.01402 46.6236 7.02105C46.8763 7.02809 47.1217 7.03158 47.3605 7.03158C47.4375 7.03158 47.5533 7.03158 47.7078 7.03158C47.8691 7.02455 48.027 7.02105 48.1815 7.02105C48.3428 7.01402 48.4586 7.01053 48.5289 7.01053H51.8552C51.9255 7.01053 52.0375 7.01402 52.192 7.02105C52.3533 7.02105 52.515 7.02455 52.6763 7.03158C52.8375 7.03158 52.9533 7.03158 53.0236 7.03158C53.2691 7.03158 53.515 7.02809 53.7605 7.02105C54.0059 7.01402 54.2481 7.01053 54.4868 7.01053V9.11579C54.2481 9.11579 54.0059 9.1123 53.7605 9.10527C53.515 9.09823 53.2691 9.09474 53.0236 9.09474C52.9533 9.09474 52.8375 9.09823 52.6763 9.10527C52.515 9.10527 52.3533 9.10876 52.192 9.11579C52.0375 9.11579 51.9255 9.11579 51.8552 9.11579H48.5289ZM47.3815 15.4842C47.1849 15.5193 46.9744 15.5439 46.7499 15.5579C46.5255 15.5719 46.3184 15.5789 46.1289 15.5789C45.9605 15.5789 45.7605 15.5719 45.5289 15.5579C45.2973 15.5439 45.0902 15.5193 44.9078 15.4842V1.10527C45.0902 1.07018 45.2973 1.04561 45.5289 1.03158C45.7605 1.01755 45.9605 1.01053 46.1289 1.01053C46.3184 1.01053 46.5255 1.01755 46.7499 1.03158C46.9744 1.04561 47.1849 1.07018 47.3815 1.10527V5.47369C47.3815 5.76842 47.3782 6.03158 47.371 6.26316C47.3638 6.48771 47.3605 6.74388 47.3605 7.03158V9.09474C47.3605 9.37545 47.3638 9.63158 47.371 9.86316C47.3782 10.0947 47.3815 10.3579 47.3815 10.6526V15.4842ZM53.0026 10.6526C53.0026 10.3579 53.0059 10.0947 53.0131 9.86316C53.0203 9.63158 53.0236 9.37545 53.0236 9.09474V7.03158C53.0236 6.74388 53.0203 6.48771 53.0131 6.26316C53.0059 6.03158 53.0026 5.76842 53.0026 5.47369V1.10527C53.192 1.07018 53.3954 1.04561 53.6131 1.03158C53.8375 1.01755 54.0413 1.01053 54.2236 1.01053C54.3992 1.01053 54.6026 1.01755 54.8342 1.03158C55.0657 1.04561 55.2763 1.07018 55.4657 1.10527V15.4842C55.2763 15.5193 55.0729 15.5439 54.8552 15.5579C54.6375 15.5719 54.4342 15.5789 54.2447 15.5789C54.0552 15.5789 53.848 15.5719 53.6236 15.5579C53.4059 15.5439 53.1992 15.5193 53.0026 15.4842V10.6526Z" fill="white"/>
    <path d="M59.2185 1.10527C59.4008 1.07018 59.608 1.04561 59.8396 1.03158C60.0711 1.01755 60.2711 1.01053 60.4396 1.01053C60.629 1.01053 60.8324 1.01755 61.0501 1.03158C61.2745 1.04561 61.485 1.07018 61.6817 1.10527V15.4842C61.485 15.5193 61.2745 15.5439 61.0501 15.5579C60.8324 15.5719 60.629 15.5789 60.4396 15.5789C60.2711 15.5789 60.0711 15.5719 59.8396 15.5579C59.608 15.5439 59.4008 15.5193 59.2185 15.4842V1.10527Z" fill="white"/>
    <path d="M75.0467 5.37895C75.0467 6.03158 74.9242 6.61756 74.6783 7.13685C74.44 7.65613 74.117 8.09124 73.7099 8.44211C73.3099 8.79297 72.8678 9.05263 72.3836 9.22106C72.7414 9.34034 73.0433 9.56842 73.2888 9.90527C73.5414 10.2351 73.7452 10.6105 73.8993 11.0316L74.773 13.3579C74.9204 13.7579 75.0678 14.0737 75.2151 14.3053C75.3625 14.5368 75.5347 14.7333 75.7309 14.8947C75.5697 15.1193 75.3309 15.3018 75.0151 15.4421C74.6993 15.5755 74.3836 15.6421 74.0678 15.6421C73.6118 15.6421 73.2783 15.5158 73.0678 15.2632C72.8572 15.0105 72.661 14.6386 72.4783 14.1474L71.4888 11.4316C71.3276 10.9755 71.1031 10.5895 70.8151 10.2737C70.5276 9.9579 70.0644 9.8 69.4257 9.8H66.8678V7.90527C67.1697 7.89124 67.5204 7.87718 67.9204 7.86316C68.3276 7.84914 68.7242 7.83861 69.1099 7.83158C69.496 7.82455 69.8118 7.82106 70.0572 7.82106C70.7099 7.82106 71.2118 7.70177 71.5625 7.46316C71.9204 7.21756 72.1663 6.90876 72.2993 6.53684C72.44 6.16493 72.5099 5.77895 72.5099 5.37895C72.5099 4.96493 72.44 4.57192 72.2993 4.2C72.1663 3.82807 71.9204 3.52632 71.5625 3.29474C71.2118 3.05614 70.7099 2.93684 70.0572 2.93684C69.7768 2.93684 69.4294 2.93684 69.0151 2.93684C68.6084 2.92983 68.2294 2.92281 67.8783 2.91579V15.4842C67.6821 15.5193 67.4716 15.5439 67.2467 15.5579C67.0294 15.5719 66.8257 15.5789 66.6362 15.5789C66.4749 15.5789 66.2783 15.5719 66.0467 15.5579C65.8151 15.5439 65.6084 15.5193 65.4257 15.4842V1.22105L65.573 1.08421C66.3802 1.07018 67.1697 1.05614 67.9414 1.04211C68.7137 1.02105 69.4678 1.01053 70.2046 1.01053C71.1802 1.01053 72.0294 1.17544 72.752 1.50527C73.4821 1.83509 74.0467 2.32281 74.4467 2.96842C74.8467 3.61404 75.0467 4.41756 75.0467 5.37895Z" fill="white"/>
    <path d="M13.991 15.6324L14.1261 15.6723V15.6361H14.3351H14.3836L14.4151 15.5992C14.4453 15.5639 14.4759 15.534 14.5098 15.5009C14.5326 15.4786 14.5569 15.4549 14.5836 15.4271C14.6424 15.3657 14.7062 15.2898 14.7363 15.1957C14.7912 15.0247 14.7506 14.8681 14.6311 14.7515C14.5183 14.6414 14.3437 14.5747 14.139 14.5463C12.608 14.3333 11.2465 12.9176 11.1211 11.4154C11.043 10.4784 11.3197 9.62106 11.7269 8.76683C11.75 9.07062 11.7731 9.37618 11.7967 9.68755C11.8187 9.97765 11.841 10.2728 11.8641 10.5763L11.8852 10.8541L12.0531 10.6317C13.7075 8.43984 14.2688 5.95593 14.5437 3.37346C15.0193 4.19053 15.4758 5.01075 15.897 5.84755C16.3624 6.77353 16.7116 7.74262 16.8708 8.79222L16.8993 8.97972L17.0433 8.85643C17.7431 8.25757 18.139 7.52788 18.4256 6.67702C18.4355 6.69828 18.4454 6.71913 18.455 6.73963C18.5399 6.92005 18.6124 7.07407 18.6743 7.23458C19.1398 8.44258 19.3114 9.59218 19.1377 10.6764C18.9642 11.7597 18.4447 12.7859 17.5145 13.7465C17.0904 14.1838 16.6088 14.4752 16.0077 14.5467C15.8898 14.5607 15.7625 14.5838 15.6549 14.6454C15.5415 14.7103 15.4568 14.8141 15.4195 14.9717C15.3802 15.1387 15.4126 15.2753 15.4934 15.3859C15.5698 15.4901 15.6839 15.5636 15.7925 15.6232L15.8161 15.6361H15.8431H16.0947H16.1098L16.1242 15.6319C17.3883 15.263 18.3027 14.6078 18.9569 13.7418C19.6099 12.8775 19.9995 11.8088 20.2252 10.6179C20.2347 10.5676 20.2468 10.5203 20.2598 10.4697C20.2667 10.4425 20.2739 10.4145 20.2811 10.3844L20.284 10.3723V10.3599V9.36329V9.35479L20.2826 9.34641C20.2686 9.26001 20.2551 9.17256 20.2415 9.08464C20.2141 8.90687 20.1864 8.72717 20.1532 8.54999C19.8814 7.0982 19.2891 5.78713 18.324 4.65588C18.2122 4.52498 18.0811 4.41332 17.9496 4.30986C17.8993 4.27028 17.8498 4.23256 17.801 4.19538C17.7191 4.13295 17.6393 4.0721 17.5609 4.00653L17.4864 3.9443L17.4183 4.01347C17.3955 4.03665 17.372 4.05994 17.3479 4.0838L17.3019 4.12926L17.3217 4.1908C17.5668 4.95412 17.7014 5.69113 17.393 6.43188C16.4592 4.27083 15.4394 2.16889 13.3882 0.755438L13.1875 0.617126L13.2244 0.85807C13.4016 2.0137 13.5091 3.14919 13.3531 4.29774C13.2739 4.88271 13.1141 5.64207 12.941 6.29146C12.8545 6.61605 12.7651 6.91142 12.6814 7.14275C12.6492 7.23151 12.6182 7.31003 12.5889 7.37664C12.5617 7.2537 12.5373 7.12902 12.5125 7.00279L12.5084 6.98174C12.4651 6.76153 12.4206 6.53702 12.3594 6.31757C12.2366 5.87706 12.045 5.4494 11.6529 5.09243L11.5075 4.96009L11.478 5.15445C11.4499 5.33921 11.4267 5.51879 11.4039 5.69441C11.3542 6.07841 11.307 6.44346 11.2169 6.80195C11.1249 7.16902 10.9924 7.52224 10.8574 7.88195C10.796 8.04561 10.7341 8.21058 10.6753 8.37883C10.6327 8.50073 10.5878 8.62342 10.5427 8.74687C10.4415 9.02388 10.3389 9.30477 10.2568 9.5894C9.87075 10.9291 10.018 12.1154 10.5237 13.0898C11.0285 14.0626 11.8867 14.8171 12.9116 15.3031C13.0859 15.3857 13.2702 15.4423 13.4523 15.4909C13.5226 15.5097 13.5913 15.527 13.6592 15.5441C13.7711 15.5723 13.8808 15.5999 13.991 15.6324Z" fill="white"/>
    <path d="M18.6743 7.23458C18.6124 7.07407 18.5399 6.92005 18.455 6.73963C18.4454 6.71913 18.4355 6.69828 18.4256 6.67702C18.139 7.52788 17.7431 8.25757 17.0433 8.85643L16.8993 8.97972L16.8708 8.79222C16.7116 7.74262 16.3624 6.77353 15.897 5.84755C15.4758 5.01075 15.0193 4.19053 14.5437 3.37346C14.2688 5.95593 13.7075 8.43984 12.0531 10.6317L11.8852 10.8541L11.8641 10.5763C11.841 10.2728 11.8187 9.97765 11.7967 9.68755C11.7731 9.37618 11.75 9.07062 11.7269 8.76683C11.3197 9.62106 11.043 10.4784 11.1211 11.4154C11.2465 12.9176 12.608 14.3333 14.139 14.5463C14.3437 14.5747 14.5183 14.6414 14.6311 14.7515C14.7506 14.8681 14.7912 15.0247 14.7363 15.1957C14.7062 15.2898 14.6424 15.3657 14.5836 15.4271C14.5569 15.4549 14.5326 15.4786 14.5098 15.5009C14.4759 15.534 14.4453 15.5639 14.4151 15.5992L14.3836 15.6361H14.3351H14.1261V15.6723L13.991 15.6324C13.8808 15.5999 13.7711 15.5723 13.6592 15.5441C13.5913 15.527 13.5226 15.5097 13.4523 15.4909C13.2702 15.4423 13.0859 15.3857 12.9116 15.3031C11.8867 14.8171 11.0285 14.0626 10.5237 13.0898C10.018 12.1154 9.87075 10.9291 10.2568 9.5894C10.3389 9.30477 10.4415 9.02388 10.5427 8.74687C10.5878 8.62342 10.6327 8.50073 10.6753 8.37883C10.7341 8.21058 10.796 8.04561 10.8574 7.88195C10.9924 7.52224 11.1249 7.16902 11.2169 6.80195C11.307 6.44346 11.3542 6.07841 11.4039 5.69441C11.4267 5.51879 11.4499 5.33921 11.478 5.15445L11.5075 4.9601L11.6529 5.09243C12.045 5.4494 12.2366 5.87706 12.3594 6.31757C12.4206 6.53702 12.4651 6.76153 12.5084 6.98174L12.5125 7.00279C12.5373 7.12902 12.5617 7.2537 12.5889 7.37664C12.6182 7.31003 12.6492 7.23151 12.6814 7.14275C12.7651 6.91142 12.8545 6.61605 12.941 6.29146C13.1141 5.64207 13.2739 4.88271 13.3531 4.29774C13.5091 3.14919 13.4016 2.0137 13.2244 0.85807L13.1875 0.617126L13.3882 0.755438C15.4394 2.16889 16.4592 4.27083 17.393 6.43188C17.7014 5.69113 17.5668 4.95412 17.3217 4.1908L17.3019 4.12926L17.3479 4.0838C17.372 4.05994 17.3955 4.03665 17.4183 4.01347L17.4864 3.9443L17.5609 4.00653C17.6393 4.0721 17.7191 4.13295 17.801 4.19538C17.8498 4.23256 17.8993 4.27028 17.9496 4.30986C18.0811 4.41332 18.2122 4.52498 18.324 4.65588C19.2891 5.78713 19.8814 7.0982 20.1532 8.54999C20.1864 8.72717 20.2141 8.90687 20.2415 9.08464C20.2551 9.17256 20.2686 9.26001 20.2826 9.34641L20.284 9.35479V9.36329V10.3599V10.3723L20.2811 10.3844C20.2739 10.4145 20.2667 10.4425 20.2598 10.4697C20.2468 10.5203 20.2347 10.5676 20.2252 10.6179C19.9995 11.8088 19.6099 12.8775 18.9569 13.7418C18.3027 14.6078 17.3883 15.263 16.1242 15.6319L16.1098 15.6361H16.0947H15.8431H15.8161L15.7925 15.6232C15.6839 15.5636 15.5698 15.4901 15.4934 15.3859C15.4126 15.2753 15.3802 15.1387 15.4195 14.9717C15.4568 14.8141 15.5415 14.7103 15.6549 14.6454C15.7625 14.5838 15.8898 14.5607 16.0077 14.5467C16.6088 14.4752 17.0904 14.1838 17.5145 13.7465C18.4447 12.7859 18.9642 11.7597 19.1377 10.6764C19.3114 9.59218 19.1398 8.44258 18.6743 7.23458ZM18.6743 7.23458L18.7725 7.19673" stroke="white" stroke-width="0.5"/>
  </g>
  <defs>
    <clipPath id="clip0_85_1566">
      <rect width="75.7895" height="16" fill="white"/>
    </clipPath>
  </defs>
</svg>
