<svg width="202" height="65" viewBox="0 0 202 65" fill="none" xmlns="http://www.w3.org/2000/svg">
<g id="ACN-logo - colour onLight">
<path id="Vector" d="M2.97956 23.9362H0L8.62458 0.324463H11.5593L20.1838 23.9362H17.2043L10.1862 4.05833H10.0067L2.97956 23.9362ZM4.08344 14.7098H16.1094V17.2441H4.08344V14.7098ZM23.8545 23.9362V0.324463H26.6994V21.4019H37.6215V23.9362H23.8545ZM42.028 23.9362V0.324463H44.8729V21.4019H55.795V23.9362H42.028ZM60.2015 23.9362V0.324463H74.3814V2.8588H63.0465V10.8406H73.6455V13.375H63.0465V21.4019H74.5698V23.9362H60.2015ZM77.4866 0.324463H80.7444L87.2599 11.3457H87.5381L94.0537 0.324463H97.3114L88.8215 14.2047V23.9362H85.9765V14.2047L77.4866 0.324463Z" fill="#04ECFE"/>
<path id="Vector_2" d="M120.547 7.70223H117.702C117.531 6.8815 117.244 6.15998 116.822 5.53767C116.409 4.91536 115.907 4.39226 115.306 3.96836C114.713 3.53545 114.067 3.21077 113.34 3.00333C112.622 2.78687 111.868 2.67865 111.087 2.67865C109.669 2.67865 108.377 3.03941 107.219 3.76093C106.071 4.48245 105.155 5.54669 104.473 6.95366C103.8 8.36062 103.468 10.0833 103.468 12.1306C103.468 14.1779 103.809 15.9005 104.473 17.3075C105.155 18.7144 106.071 19.7787 107.219 20.5002C108.377 21.2217 109.66 21.5825 111.087 21.5825C111.868 21.5825 112.613 21.4743 113.34 21.2578C114.058 21.0413 114.713 20.7257 115.306 20.3018C115.907 19.8689 116.409 19.3458 116.822 18.7235C117.244 18.0921 117.54 17.3706 117.702 16.5589H120.547C120.331 17.7674 119.945 18.8497 119.38 19.7967C118.815 20.7527 118.115 21.5644 117.271 22.2319C116.427 22.8902 115.485 23.3953 114.435 23.738C113.394 24.0808 112.281 24.2611 111.096 24.2611C109.095 24.2611 107.309 23.7651 105.748 22.782C104.186 21.7989 102.956 20.401 102.068 18.5882C101.171 16.7754 100.731 14.6198 100.731 12.1306C100.731 9.64132 101.18 7.48578 102.068 5.67296C102.965 3.86014 104.195 2.46219 105.748 1.47912C107.309 0.496045 109.086 0 111.096 0C112.281 0 113.394 0.171361 114.435 0.523103C115.485 0.865825 116.427 1.37991 117.271 2.04731C118.115 2.7057 118.815 3.51741 119.38 4.46441C119.945 5.41141 120.34 6.49369 120.547 7.70223ZM144.967 12.1306C144.967 14.6198 144.518 16.7754 143.62 18.5882C142.723 20.401 141.493 21.7989 139.941 22.782C138.379 23.7651 136.602 24.2611 134.592 24.2611C132.582 24.2611 130.805 23.7651 129.243 22.782C127.681 21.7989 126.452 20.401 125.563 18.5882C124.666 16.7754 124.217 14.6198 124.217 12.1306C124.217 9.64132 124.666 7.48578 125.563 5.67296C126.461 3.86014 127.681 2.46219 129.243 1.47912C130.805 0.496045 132.582 0 134.592 0C136.602 0 138.379 0.496045 139.941 1.47912C141.502 2.46219 142.732 3.86014 143.62 5.67296C144.518 7.48578 144.967 9.64132 144.967 12.1306ZM142.211 12.1306C142.211 10.0833 141.87 8.36062 141.188 6.95366C140.515 5.54669 139.6 4.48245 138.442 3.76093C137.293 3.03941 136.01 2.67865 134.592 2.67865C133.174 2.67865 131.882 3.03941 130.724 3.76093C129.575 4.48245 128.66 5.54669 127.978 6.95366C127.305 8.36062 126.972 10.0833 126.972 12.1306C126.972 14.1779 127.314 15.9005 127.978 17.3075C128.66 18.7144 129.575 19.7787 130.724 20.5002C131.882 21.2217 133.165 21.5825 134.592 21.5825C136.019 21.5825 137.302 21.2217 138.442 20.5002C139.6 19.7787 140.515 18.7144 141.188 17.3075C141.87 15.9005 142.211 14.1779 142.211 12.1306ZM149.75 23.9365V0.324684H157.692C159.532 0.324684 161.031 0.64035 162.216 1.27168C163.391 1.89399 164.262 2.7508 164.827 3.8421C165.393 4.9334 165.68 6.17802 165.68 7.56695C165.68 8.95588 165.393 10.1915 164.827 11.2647C164.262 12.338 163.391 13.1858 162.225 13.7991C161.058 14.4034 159.559 14.71 157.737 14.71H151.312V12.1306H157.648C158.904 12.1306 159.909 11.9502 160.681 11.5804C161.453 11.2106 162.009 10.6875 162.359 10.0111C162.709 9.32566 162.889 8.51394 162.889 7.56695C162.889 6.61995 162.709 5.79922 162.359 5.08672C162.009 4.37422 161.444 3.83308 160.672 3.44526C159.9 3.05744 158.877 2.85903 157.612 2.85903H152.613V23.9365H149.768H149.75ZM160.807 13.3301L166.586 23.9365H163.284L157.594 13.3301H160.807ZM170.409 23.9365V0.324684H178.352C180.192 0.324684 181.7 0.658388 182.875 1.32579C184.051 1.98418 184.921 2.88608 185.487 4.01346C186.052 5.14083 186.339 6.4035 186.339 7.79242C186.339 9.18135 186.061 10.444 185.487 11.5894C184.93 12.7258 184.069 13.6367 182.893 14.3132C181.726 14.9806 180.228 15.3143 178.397 15.3143H172.707V12.7799H178.307C179.573 12.7799 180.587 12.5635 181.349 12.1215C182.112 11.6796 182.669 11.0934 183.01 10.3448C183.36 9.58721 183.539 8.73942 183.539 7.79242C183.539 6.84543 183.36 5.99764 183.01 5.25808C182.669 4.5095 182.103 3.93229 181.332 3.50839C180.56 3.07548 179.537 2.85903 178.253 2.85903H173.254V23.9365H170.409Z" fill="#02C6FF"/>
<path id="Vector_3" d="M84.9265 64.2515V45.3838C84.9265 43.6611 84.388 42.2722 83.3021 41.226C82.2611 40.1347 80.9328 39.5936 79.2995 39.5936C78.1687 39.5936 77.1725 39.8461 76.3199 40.3421C75.4583 40.7931 74.7852 41.4785 74.2827 42.3895C73.7891 43.2553 73.5378 44.2474 73.5378 45.3838L69.5351 43.4086C69.5351 40.8201 70.1005 38.5474 71.2313 36.5992C72.3621 34.6511 73.9237 33.145 75.9071 32.1078C77.9443 31.0165 80.2238 30.4753 82.7547 30.4753C85.2855 30.4753 87.3407 31.0616 89.1894 32.2431C91.0831 33.3795 92.5818 34.8947 93.6588 36.8067C94.7357 38.7187 95.2832 40.8021 95.2832 43.0749V64.2515H84.9175H84.9265ZM63.1721 64.2515V31.1518H73.5378V64.2515H63.1721Z" fill="#06FFF0"/>
<path id="Vector_4" d="M117.809 65.0002C114.417 65.0002 111.348 64.2516 108.592 62.7545C105.882 61.2122 103.737 59.1198 102.158 56.4863C100.578 53.8527 99.7884 50.9035 99.7884 47.6296C99.7884 44.3557 100.578 41.4336 102.158 38.8451C103.737 36.2566 105.882 34.2183 108.592 32.7122C111.303 31.1699 114.372 30.3943 117.809 30.3943C121.247 30.3943 124.316 31.1429 127.026 32.64C129.737 34.1372 131.882 36.2025 133.461 38.8361C135.041 41.4245 135.83 44.3557 135.83 47.6206C135.83 50.8855 135.041 53.8437 133.461 56.4773C131.882 59.1108 129.737 61.2032 127.026 62.7455C124.316 64.2426 121.247 64.9912 117.809 64.9912V65.0002ZM117.809 55.5303C119.299 55.5303 120.609 55.2146 121.74 54.5742C122.871 53.8888 123.724 52.9598 124.316 51.7784C124.953 50.5518 125.267 49.1719 125.267 47.6206C125.267 46.0693 124.953 44.7345 124.316 43.5981C123.688 42.4166 122.799 41.5057 121.677 40.8744C120.592 40.1889 119.308 39.8552 117.818 39.8552C116.329 39.8552 115.081 40.1979 113.959 40.8744C112.828 41.5057 111.949 42.4166 111.321 43.5981C110.684 44.7796 110.369 46.1415 110.369 47.6837C110.369 49.226 110.684 50.5428 111.321 51.7693C111.958 52.9508 112.837 53.8798 113.959 54.5652C115.09 55.1966 116.373 55.5212 117.818 55.5212L117.809 55.5303Z" fill="#06FFF0"/>
<path id="Vector_5" d="M141 64.2513V31.1515H151.366V64.2513H141ZM151.366 46.069L147.031 42.6598C147.892 38.7996 149.337 35.8053 151.366 33.6678C153.394 31.5303 156.221 30.4661 159.838 30.4661C161.417 30.4661 162.799 30.7186 163.975 31.2146C165.195 31.6656 166.254 32.3961 167.161 33.3972L160.995 41.2257C160.547 40.7297 159.981 40.3419 159.299 40.0713C158.617 39.8007 157.854 39.6655 156.993 39.6655C155.278 39.6655 153.896 40.2066 152.855 41.2979C151.859 42.3441 151.366 43.9314 151.366 46.069Z" fill="#06FFF0"/>
<path id="Subtract" fill-rule="evenodd" clip-rule="evenodd" d="M198.679 10.5165L201.165 12.9065C201.704 13.4206 202 14.1241 202 14.8636V61.546C202 63.0432 200.797 64.2517 199.308 64.2517H194.524C193.124 64.2517 191.966 63.1784 191.85 61.7985C191.06 62.475 190.172 63.0612 189.193 63.5663C187.336 64.4772 185.28 64.9281 183.028 64.9281C179.905 64.9281 177.131 64.1796 174.69 62.6824C172.294 61.1852 170.401 59.1379 169 56.5495C167.636 53.97 166.963 51.0208 166.963 47.7018C166.963 44.3828 167.636 41.4336 169 38.8452C170.401 36.2567 172.294 34.2184 174.69 32.7122C177.131 31.2151 179.905 30.4665 183.028 30.4665C185.28 30.4665 187.318 30.8994 189.122 31.7652C190.046 32.1891 190.881 32.7032 191.634 33.2985V21.2038L195.099 17.966C196.068 17.0641 197.567 17.0641 198.527 17.975L202 21.2579V18.2005L198.455 14.8544C197.531 13.9796 196.095 13.9796 195.17 14.8454L191.634 18.1463L191.634 14.8636C191.634 14.1241 191.931 13.4206 192.46 12.9065L194.955 10.5165C195.996 9.51535 197.638 9.51535 198.679 10.5165ZM184.859 55.5303C186.348 55.5303 187.632 55.2147 188.718 54.5743C189.804 53.8979 190.656 52.9689 191.293 51.7874C191.922 50.6059 192.245 49.2441 192.245 47.7018C192.245 46.1596 191.922 44.8158 191.293 43.6794C190.701 42.4979 189.848 41.5689 188.718 40.8925C187.632 40.207 186.366 39.8643 184.921 39.8643C183.477 39.8643 182.193 40.207 181.062 40.8925C179.976 41.5689 179.097 42.4979 178.415 43.6794C177.787 44.8608 177.464 46.2047 177.464 47.7018C177.464 49.199 177.787 50.5338 178.415 51.7153C179.052 52.8968 179.932 53.8257 181.062 54.5112C182.193 55.1876 183.45 55.5303 184.859 55.5303Z" fill="#06FFF0"/>
</g>
<defs>
<clipPath id="clip0_470_309">
<rect width="202" height="65" fill="white"/>
</clipPath>
</defs>
</svg>
