<svg xmlns="http://www.w3.org/2000/svg" width="116" height="120" viewBox="0 0 116 120" fill="none">
  <path fill-rule="evenodd" clip-rule="evenodd" d="M92.6578 10.9851C85.1838 5.59891 76.5381 2.06363 67.4315 0.669941C58.3249 -0.723746 49.0176 0.0639701 40.2748 2.96832C-2.74703 17.9064 -12.656 78.5552 17.1207 105.892C26.3325 114.556 37.8847 116.598 48.4907 119.535C48.7 119.594 48.9188 119.611 49.1346 119.586C49.3505 119.56 49.5591 119.492 49.7487 119.386C49.9383 119.279 50.1051 119.137 50.2395 118.966C50.3739 118.795 50.4734 118.599 50.5323 118.39C50.5911 118.181 50.6082 117.962 50.5825 117.746C50.5568 117.531 50.4888 117.322 50.3825 117.132C50.2761 116.943 50.1335 116.776 49.9627 116.641C49.7919 116.507 49.5963 116.408 49.387 116.349C39.4283 113.461 28.2247 111.369 19.7598 103.153C-6.9297 77.6091 2.6805 21.5414 42.0673 8.19666C49.9554 5.60982 58.3406 4.91097 66.5481 6.15636C74.7555 7.40175 82.556 10.5566 89.3216 15.367C115.065 33.94 119.696 76.4639 94.301 102.406C87.529 109.278 80.9065 114.855 71.0971 115.154C70.7141 115.154 70.3468 115.306 70.076 115.577C69.8052 115.847 69.6531 116.215 69.6531 116.598C69.6531 116.981 69.8052 117.348 70.076 117.619C70.3468 117.89 70.7141 118.042 71.0971 118.042C81.753 118.042 89.1722 112.116 96.6911 104.846C124.675 77.4598 120.244 31.4006 92.6578 10.9851Z" fill="white"/>
  <path fill-rule="evenodd" clip-rule="evenodd" d="M65.1717 70.5383C53.6906 68.349 41.9694 67.696 30.3161 68.5964C40.2749 59.4841 42.2168 60.48 41.8185 59.6833C42.2543 59.6437 42.6565 59.4326 42.9366 59.0964C43.2168 58.7602 43.3519 58.3265 43.3123 57.8907C43.2727 57.4549 43.0615 57.0527 42.7254 56.7726C42.3892 56.4924 41.9555 56.3573 41.5197 56.3969C40.3246 56.3969 24.8388 64.2643 22.7475 68.7956C21.5524 71.4346 24.3409 75.1692 26.482 77.1609C30.1239 80.1291 33.9309 82.8888 37.8848 85.4267C38.1555 85.6973 38.5227 85.8493 38.9055 85.8493C39.2884 85.8493 39.6555 85.6973 39.9263 85.4267C41.6691 83.6341 37.9843 82.0407 31.2622 74.97C30.3095 74.0056 29.4276 72.9739 28.6231 71.8828C29.0215 71.8828 41.2209 73.6754 47.7937 74.0737C53.5544 74.2833 59.3222 74.1835 65.0721 73.7749C66.4664 73.7749 67.9104 73.7749 67.8108 72.6795C68.5079 70.6877 66.9643 70.7375 65.1717 70.5383Z" fill="white"/>
  <path fill-rule="evenodd" clip-rule="evenodd" d="M76.7738 41.9068C69.9211 41.5253 63.0504 41.6085 56.209 42.1558C56.0224 42.072 55.8202 42.0288 55.6157 42.0291C55.4112 42.0294 55.2091 42.073 55.0228 42.1573C54.8364 42.2415 54.6701 42.3643 54.5348 42.5177C54.3995 42.671 54.2983 42.8513 54.2379 43.0467C54.1775 43.2421 54.1593 43.448 54.1845 43.651C54.2097 43.8539 54.2777 44.0492 54.384 44.2239C54.4903 44.3985 54.6325 44.5486 54.8012 44.6643C54.9699 44.7799 55.1612 44.8583 55.3625 44.8944C60.0359 46.0329 64.802 46.7495 69.6035 47.0356C75.6313 47.2388 81.6657 47.1058 87.6786 46.6372C86.0852 48.0314 80.7075 53.9071 77.7199 56.8449C77.0726 57.4922 75.7779 57.9902 75.6285 58.9861C75.4792 59.9819 75.9273 61.426 77.9191 60.4799C79.1639 59.8823 94.5502 49.2763 95.3967 45.8903C95.4398 45.1554 95.309 44.4207 95.0148 43.7458C94.7206 43.071 94.2714 42.475 93.7037 42.0064C91.4132 39.8653 77.2219 29.0102 75.0808 29.1098C74.645 29.1098 74.2271 29.2829 73.9189 29.5911C73.6107 29.8992 73.4376 30.3172 73.4376 30.753C73.4376 32.4958 73.4376 30.3049 86.7823 43.0521C82.6993 42.6039 80.2096 42.2056 76.7738 41.9068Z" fill="white"/>
</svg>
