<svg width="79" height="44" viewBox="0 0 79 44" fill="none" xmlns="http://www.w3.org/2000/svg">
  <path fill-rule="evenodd" clip-rule="evenodd" d="M54.3433 18.255C54.0584 17.7342 53.6529 17.2892 53.1607 16.9573C52.6685 16.6253 52.104 16.4161 51.5144 16.3471C49.3397 15.9359 47.1431 15.6503 44.9356 15.4919H44.5409C44.5409 15.0643 44.3435 14.4393 44.3435 13.8472C44.3435 10.5578 44.5738 5.13023 44.3435 2.53159C44.3535 1.9157 44.2532 1.30299 44.0474 0.722413C43.2251 -0.988081 41.712 0.722412 40.5278 1.9066C37.5673 5.03154 31.3503 12.4656 27.3701 17.3011C25.8899 19.1431 24.7386 20.5905 24.0807 21.3799C23.8205 21.6922 23.6596 22.0751 23.6185 22.4796C23.5775 22.884 23.6583 23.2914 23.8505 23.6496C24.1837 23.9733 24.5817 24.2227 25.0182 24.3814C25.4548 24.5402 25.92 24.6047 26.3833 24.5707C28.3241 24.8996 32.6332 24.9654 34.6068 25.0312C34.6068 28.3206 34.1463 36.3796 33.9818 39.998V41.6756C33.9485 42.0956 34.044 42.5158 34.2555 42.8802C34.4671 43.2446 34.7847 43.5358 35.166 43.715C35.5005 43.8507 35.8665 43.8887 36.2217 43.8246C36.5769 43.7606 36.9066 43.5971 37.1726 43.3532C37.5079 43.0531 37.8264 42.7346 38.1265 42.3993C39.3765 40.919 41.9751 37.7283 44.7053 34.11C47.9584 29.8997 50.9677 25.5067 53.7183 20.9523C54.22 20.1474 54.4399 19.1985 54.3433 18.255ZM50.4289 20.2286C47.929 24.1101 41.8764 31.8403 37.962 36.6757C37.962 34.8994 38.1265 32.86 38.1594 30.985V24.1759C38.1705 23.7191 38.0682 23.2666 37.8615 22.859C37.6549 22.4514 37.3503 22.1014 36.9752 21.8404C36.4415 21.6849 35.8859 21.6182 35.3305 21.6431H28.1267V21.4457C31.2187 17.0379 38.4226 7.5315 41.7778 3.61709H41.9422V3.81446C41.9422 6.51178 41.5804 10.8538 41.4817 13.6827C41.3903 14.7004 41.3903 15.7242 41.4817 16.7419C41.503 16.9741 41.5725 17.1994 41.6858 17.4033C41.7991 17.6072 41.9536 17.7852 42.1396 17.926C42.8931 18.2848 43.708 18.4969 44.5409 18.551C46.6101 18.7653 48.6644 19.1058 50.6921 19.5707L50.4289 20.2286Z" fill="white"/>
  <path fill-rule="evenodd" clip-rule="evenodd" d="M26.9754 39.1427C21.8816 39.3483 16.823 38.214 12.3046 35.8533C10.2042 34.6486 8.39573 32.9949 7.0083 31.0105C5.62088 29.026 4.68874 26.7596 4.27846 24.3733C3.64175 21.9976 3.66355 19.4934 4.34154 17.1291C5.01952 14.7649 6.32812 12.6297 8.12707 10.9525C12.0415 7.41359 16.9874 5.22306 22.2386 4.70259C23.4374 4.53317 24.6463 4.44525 25.857 4.43944C26.9754 4.43944 28.1596 4.43944 29.5411 4.60391C29.6716 4.62231 29.8045 4.61349 29.9314 4.57799C30.0583 4.54248 30.1765 4.48107 30.2785 4.39763C30.3804 4.31419 30.464 4.21052 30.524 4.09316C30.5839 3.97581 30.6189 3.84731 30.6267 3.71577C30.6403 3.58086 30.6259 3.44459 30.5845 3.31546C30.5432 3.18634 30.4756 3.06713 30.3861 2.96527C30.2966 2.86342 30.187 2.7811 30.0643 2.72346C29.9416 2.66582 29.8083 2.6341 29.6727 2.63026C28.3241 2.4329 27.0741 2.20264 25.9228 2.20264C24.6193 2.1204 23.3119 2.1204 22.0084 2.20264C15.9979 2.32482 10.2039 4.46861 5.56133 8.28805C3.24697 10.3756 1.5573 13.0645 0.680366 16.0553C-0.196566 19.0462 -0.226353 22.2217 0.594319 25.2285C1.22744 28.0434 2.47608 30.6831 4.25055 32.958C6.02502 35.233 8.28129 37.0868 10.8573 38.3862C15.9294 40.7059 21.52 41.6584 27.0741 41.1493C27.2393 41.1775 27.4087 41.1693 27.5704 41.1253C27.7321 41.0813 27.8823 41.0025 28.0104 40.8944C28.1385 40.7863 28.2414 40.6516 28.3121 40.4996C28.3827 40.3476 28.4193 40.182 28.4193 40.0144C28.4193 39.8468 28.3827 39.6812 28.3121 39.5293C28.2414 39.3773 28.1385 39.2425 28.0104 39.1345C27.8823 39.0264 27.7321 38.9476 27.5704 38.9036C27.4087 38.8595 27.2393 38.8514 27.0741 38.8796L26.9754 39.1427Z" fill="white"/>
  <path fill-rule="evenodd" clip-rule="evenodd" d="M78.7179 18.6497C78.1762 15.3863 76.823 12.3115 74.7825 9.70769C72.742 7.10393 70.0798 5.05482 67.0405 3.74869C65.2304 3.02584 63.3243 2.57148 61.3827 2.40003C58.6122 2.20263 55.8311 2.20263 53.0605 2.40003C52.7985 2.41633 52.552 2.52995 52.3694 2.7186C52.1869 2.90726 52.0814 3.15733 52.0737 3.41975C52.0736 3.55215 52.1002 3.68322 52.1518 3.80514C52.2035 3.92707 52.2791 4.03735 52.3743 4.12943C52.4694 4.22151 52.5821 4.2935 52.7057 4.34111C52.8292 4.38872 52.9611 4.41099 53.0934 4.40657C55.7546 4.36314 58.4154 4.51706 61.0538 4.86709C64.6308 5.40001 67.9325 7.09706 70.4478 9.69562C72.9631 12.2942 74.5518 15.6493 74.968 19.2418C75.4351 21.9511 75.2842 24.7309 74.5267 27.3738C73.7691 30.0166 72.4245 32.4542 70.5931 34.5047C68.8488 36.25 66.6489 37.4696 64.2445 38.0244C60.3149 38.9014 56.2971 39.3208 52.271 39.2743C51.9714 39.2829 51.687 39.408 51.4781 39.623C51.2693 39.838 51.1525 40.1259 51.1526 40.4256C51.1612 40.7252 51.2863 41.0097 51.5013 41.2185C51.7163 41.4274 52.0042 41.5442 52.3039 41.544C56.527 41.7812 60.7633 41.5495 64.9353 40.8533C67.963 40.303 70.7704 38.8993 73.0272 36.8073C75.3304 34.4371 77.0452 31.5594 78.0336 28.4058C79.0219 25.2521 79.2563 21.9105 78.7179 18.6497Z" fill="white"/>
</svg>
