<svg width="107" height="107" viewBox="0 0 107 107" fill="none" xmlns="http://www.w3.org/2000/svg">
<g id="ui-browser-slider-1-1 1" clip-path="url(#clip0_506_25)">
<g id="Group">
<path id="Vector" d="M22.0241 20.3742C21.9778 19.4202 21.56 18.5223 20.8602 17.8724C20.1603 17.2225 19.2339 16.8723 18.2791 16.8967C17.8283 16.9172 17.3859 17.0263 16.9772 17.2177C16.5686 17.4092 16.2016 17.6793 15.8973 18.0125C15.5931 18.3458 15.3574 18.7357 15.2038 19.1601C15.0502 19.5844 14.9817 20.0348 15.0022 20.4857C15.0227 20.9365 15.1318 21.3788 15.3232 21.7875C15.5147 22.1962 15.7848 22.5631 16.118 22.8674C16.7911 23.4819 17.6807 23.8039 18.5912 23.7625C19.4772 23.7107 20.3141 23.3383 20.9457 22.7149C21.5774 22.0914 21.9607 21.2595 22.0241 20.3742Z" fill="#302D3D"/>
<path id="Vector_2" d="M35.6666 20.3745C35.6493 19.9001 35.5388 19.4338 35.3412 19.0023C35.1436 18.5707 34.8628 18.1823 34.515 17.8594C34.1672 17.5364 33.7591 17.2851 33.3141 17.12C32.8691 16.9549 32.3959 16.8791 31.9216 16.897C31.4563 16.9127 30.9993 17.0242 30.579 17.2244C30.1587 17.4247 29.7842 17.7094 29.4788 18.0608C29.1734 18.4122 28.9437 18.8227 28.804 19.2668C28.6644 19.7109 28.6177 20.179 28.667 20.642C28.6953 21.0814 28.8102 21.5109 29.0049 21.9059C29.1997 22.3008 29.4705 22.6534 29.802 22.9434C30.1334 23.2334 30.5188 23.455 30.9361 23.5957C31.3534 23.7363 31.7943 23.7931 32.2337 23.7628C33.1229 23.7205 33.9652 23.3512 34.5988 22.7258C35.2324 22.1004 35.6126 21.2631 35.6666 20.3745Z" fill="#302D3D"/>
<path id="Vector_3" d="M49.0418 20.3745C49.0245 19.9001 48.9139 19.4338 48.7163 19.0023C48.5187 18.5707 48.238 18.1823 47.8902 17.8594C47.5424 17.5364 47.1343 17.2851 46.6893 17.12C46.2443 16.9549 45.7711 16.8791 45.2968 16.897C44.8308 16.9053 44.372 17.0122 43.9503 17.2107C43.5287 17.4092 43.154 17.6947 42.8507 18.0486C42.5474 18.4024 42.3225 18.8164 42.1909 19.2634C42.0592 19.7104 42.0237 20.1803 42.0868 20.642C42.1092 21.0835 42.2201 21.516 42.4129 21.9138C42.6057 22.3116 42.8765 22.6666 43.2092 22.9577C43.5419 23.2488 43.9297 23.4701 44.3496 23.6084C44.7695 23.7467 45.2129 23.7992 45.6534 23.7628C46.5348 23.7099 47.3662 23.3359 47.9905 22.7116C48.6149 22.0873 48.9888 21.2558 49.0418 20.3745Z" fill="#302D3D"/>
<path id="Vector_4" d="M84.7083 94.1153C84.7083 94.1153 51.6721 95.319 27.6862 94.1153C22.0817 93.897 16.4971 93.3162 10.9675 92.3765C8.99547 92.2001 7.09702 91.5418 5.43916 90.4594C5.30711 90.0416 5.24681 89.6045 5.26082 89.1665C4.93915 87.4755 4.76019 85.7605 4.72582 84.0395V72.0911C4.72582 60.9453 4.72582 49.7994 5.17166 38.4307C5.17166 36.7365 5.39458 34.9978 5.52833 33.3036C8.77397 32.5334 12.0647 31.9676 15.3812 31.6094C21.7567 31.2082 28.0875 30.9407 34.24 30.8961C40.3925 30.8515 46.4558 30.8961 52.5637 30.8961H70.8429C77.7979 30.8961 84.7529 31.4311 91.7079 31.5203H100.625C100.812 31.5145 100.996 31.4719 101.167 31.3948C101.338 31.3177 101.492 31.2077 101.621 31.0711C101.749 30.9345 101.849 30.7739 101.915 30.5985C101.982 30.4231 102.013 30.2364 102.007 30.049C101.984 29.6745 101.819 29.3228 101.545 29.0659C101.272 28.809 100.911 28.6663 100.535 28.6669C97.5632 28.6669 94.591 28.5778 91.6187 28.3994C84.7083 27.6861 77.9762 26.7499 71.0212 26.4378C64.8687 26.0811 58.7162 25.8582 52.5192 25.8582C46.3221 25.8582 40.125 26.2149 34.0617 26.4824C27.9983 26.7499 21.4 27.4186 15.0246 28.4886C11.9483 29.0236 8.87208 29.7369 6.10791 30.5394C6.51776 25.783 7.17252 21.0509 8.06957 16.3619C8.10148 16.1605 8.08982 15.9546 8.03539 15.758C7.98096 15.5615 7.88502 15.3789 7.75404 15.2225C7.62306 15.0662 7.46008 14.9398 7.2761 14.8518C7.09212 14.7638 6.8914 14.7162 6.68749 14.7124C6.5053 14.6668 6.31556 14.6601 6.13061 14.6927C5.94566 14.7253 5.76964 14.7965 5.61403 14.9016C5.45842 15.0068 5.32669 15.1435 5.22743 15.3029C5.12817 15.4624 5.06359 15.6409 5.03791 15.8269C3.46402 23.1796 2.36204 30.6253 1.73874 38.1186C0.802492 49.5319 0.624158 60.9007 0.267492 72.1357C0.267492 76.059 -0.178342 81.8995 0.267492 86.3578C0.153459 88.9186 0.822161 91.4535 2.18457 93.6249C3.74534 94.9922 5.63527 95.9295 7.66832 96.3444C14.2294 97.7863 20.9241 98.5335 27.6417 98.5736C51.8058 99.3315 85.0204 96.6119 85.0204 96.6119C85.3475 96.5782 85.6494 96.4211 85.8647 96.1726C86.08 95.9242 86.1926 95.603 86.1796 95.2745C86.1698 95.0975 86.1225 94.9247 86.0408 94.7675C85.9591 94.6103 85.8449 94.4723 85.7057 94.3626C85.5665 94.253 85.4056 94.1742 85.2336 94.1316C85.0617 94.0889 84.8826 94.0834 84.7083 94.1153Z" fill="#302D3D"/>
<path id="Vector_5" d="M106.51 20.6418C106.092 18.474 105.243 16.4121 104.013 14.5785C102.181 12.2084 99.522 10.6164 96.5676 10.1201C90.8639 9.36897 85.1032 9.14511 79.3584 9.45138C72.0913 8.91638 64.9134 8.55972 57.9584 8.38138C51.0034 8.20305 43.558 8.38138 36.3355 8.38138C30.6111 8.43438 24.8947 8.82142 19.2155 9.54055C15.3887 10.0849 11.6351 11.057 8.02507 12.4385C7.74912 12.5781 7.53482 12.8151 7.42368 13.1037C7.31253 13.3923 7.31246 13.7119 7.42347 14.0005C7.53448 14.2891 7.74868 14.5263 8.02456 14.666C8.30044 14.8057 8.61836 14.8381 8.91673 14.7568C12.3878 13.5767 15.9747 12.7696 19.6167 12.3493C25.1013 11.8677 30.6083 11.6891 36.1126 11.8143C41.9084 11.8143 47.5705 12.0372 53.2772 12.3047C61.8372 12.7208 70.412 13.2707 79.0017 13.9543C82.4347 14.1772 88.2751 13.5531 93.313 14.2218C94.5909 14.2304 95.8531 14.5043 97.0196 15.0262C98.1861 15.548 99.2316 16.3065 100.09 17.2535C100.941 18.6189 101.53 20.1307 101.828 21.7118C102.262 24.3184 102.411 26.9643 102.274 29.6031L100.758 90.7714C100.709 91.5123 100.435 92.2206 99.9731 92.8019C99.5111 93.3833 98.8831 93.8103 98.1726 94.026C96.4516 94.6693 94.607 94.9133 92.778 94.7393C92.582 94.6891 92.3776 94.6812 92.1784 94.716C91.9791 94.7509 91.7895 94.8277 91.6222 94.9414C91.4549 95.0551 91.3137 95.2031 91.2079 95.3756C91.1022 95.548 91.0343 95.741 91.0088 95.9417C90.9833 96.1423 91.0008 96.3461 91.0601 96.5396C91.1194 96.733 91.2192 96.9115 91.3527 97.0635C91.4863 97.2154 91.6507 97.3371 91.8349 97.4207C92.0191 97.5042 92.219 97.5476 92.4213 97.548C95.2181 97.9257 98.0637 97.4437 100.58 96.166C101.557 95.6605 102.379 94.9008 102.959 93.967C103.54 93.0332 103.858 91.96 103.879 90.8605L107 29.6031C107.169 26.607 107.004 23.6016 106.51 20.6418Z" fill="#302D3D"/>
<path id="Vector_6" d="M23.4507 47.0354L28.5778 40.4816C28.72 40.3689 28.8359 40.2266 28.9174 40.0645C28.999 39.9024 29.0442 39.7245 29.05 39.5432C29.0558 39.3619 29.022 39.1815 28.951 39.0145C28.8799 38.8476 28.7734 38.6981 28.6387 38.5766C28.504 38.455 28.3444 38.3643 28.1711 38.3107C27.9977 38.2571 27.8148 38.242 27.635 38.2663C27.4552 38.2906 27.2829 38.3538 27.13 38.4515C26.9772 38.5492 26.8474 38.6791 26.7499 38.832L20.5974 44.5833L14.7569 50.1116C13.9335 50.8304 13.2267 51.6727 12.6615 52.6083C12.3262 53.4991 12.3262 54.4816 12.6615 55.3724C12.9866 56.2587 13.5403 57.0431 14.2665 57.6462C15.4273 58.5273 16.7021 59.2472 18.0561 59.7862L21.8457 61.4804L27.7753 64.6458C28.0925 64.8388 28.4711 64.9047 28.8349 64.8303C29.1987 64.7559 29.521 64.5466 29.7369 64.2445C29.8886 63.9274 29.9179 63.5655 29.8191 63.2282C29.7204 62.8909 29.5006 62.6019 29.202 62.4166L23.4507 58.3595L20.0178 56.2195C19.3936 55.7737 18.5911 55.3279 17.8778 54.7929C17.628 54.651 17.4023 54.4704 17.209 54.2579C17.5211 53.9012 22.2915 48.3283 23.4507 47.0354Z" fill="#302D3D"/>
<path id="Vector_7" d="M91.8416 52.6084C91.2745 51.6612 90.5509 50.817 89.7016 50.1117L83.9057 44.5834L77.7978 38.8322C77.6912 38.7033 77.5599 38.5973 77.4115 38.5202C77.2631 38.4431 77.1008 38.3966 76.9341 38.3835C76.7675 38.3704 76.5999 38.3908 76.4413 38.4437C76.2827 38.4966 76.1363 38.5808 76.0108 38.6913C75.8854 38.8018 75.7834 38.9364 75.711 39.087C75.6385 39.2377 75.5971 39.4014 75.5891 39.5684C75.5811 39.7354 75.6068 39.9023 75.6645 40.0592C75.7223 40.2161 75.811 40.3598 75.9253 40.4817L81.0524 47.0355C82.0778 48.3284 83.0141 49.6659 84.0395 50.9588C85.0637 52.0745 86.1503 53.1314 87.2941 54.1242C87.2941 54.1242 85.1095 55.6401 84.4853 56.0859L81.0524 58.2259L75.3011 62.4167C74.999 62.6327 74.7897 62.9549 74.7153 63.3188C74.6409 63.6826 74.7068 64.0611 74.8999 64.3784C75.1159 64.6805 75.4381 64.8898 75.8019 64.9642C76.1658 65.0386 76.5443 64.9727 76.8615 64.7797L82.7911 61.6142L86.5807 59.9201C87.9443 59.3721 89.2327 58.653 90.4149 57.7801C91.1159 57.1636 91.6522 56.3821 91.9753 55.5063C92.1629 55.0421 92.2481 54.5429 92.225 54.0427C92.202 53.5426 92.0711 53.0533 91.8416 52.6084Z" fill="#302D3D"/>
<path id="Vector_8" fill-rule="evenodd" clip-rule="evenodd" d="M30.9408 73.874C29.9022 74.0957 28.9569 74.6317 28.2335 75.4094C27.5102 76.187 27.0437 77.1684 26.8976 78.2204C26.7515 79.2723 26.9328 80.3438 27.4169 81.2891C27.901 82.2344 28.6644 83.0077 29.6033 83.504C30.351 84.1994 31.2834 84.6642 32.2887 84.8428C33.294 85.0213 34.3295 84.906 35.2708 84.5106C36.2122 84.1152 37.0195 83.4566 37.5958 82.6138C38.1722 81.7709 38.493 80.7797 38.52 79.759C38.9658 74.6765 33.9279 73.4282 30.9408 73.874Z" fill="#302D3D"/>
<path id="Vector_9" fill-rule="evenodd" clip-rule="evenodd" d="M70.5309 73.9186C69.542 74.1236 68.6405 74.6289 67.9496 75.3654C67.2587 76.1019 66.812 77.0338 66.6705 78.0338C66.5291 79.0337 66.6998 80.0529 67.1593 80.9522C67.6188 81.8515 68.3447 82.5869 69.2379 83.0582C69.9537 83.7149 70.8428 84.1528 71.7997 84.3199C72.7567 84.487 73.7415 84.3763 74.6375 84.001C75.5335 83.6257 76.3032 83.0015 76.8554 82.2023C77.4077 81.4031 77.7193 80.4624 77.7534 79.4915C78.11 74.6319 73.3396 73.4728 70.5309 73.9186Z" fill="#302D3D"/>
<path id="Vector_10" fill-rule="evenodd" clip-rule="evenodd" d="M48.0609 76.1924C47.6315 76.7723 47.3379 77.4412 47.2018 78.1498C47.0656 78.8584 47.0905 79.5886 47.2746 80.2863C47.4586 80.9839 47.7972 81.6313 48.2651 82.1806C48.733 82.7299 49.3184 83.1669 49.978 83.4595C55.7738 86.0453 60.5442 79.447 57.7801 76.1478C57.1455 75.5009 56.3877 74.9878 55.5514 74.6389C54.715 74.29 53.8172 74.1124 52.9111 74.1165C52.0049 74.1207 51.1088 74.3065 50.2757 74.6631C49.4426 75.0197 48.6895 75.5397 48.0609 76.1924Z" fill="#302D3D"/>
</g>
</g>
<defs>
<clipPath id="clip0_506_25">
<rect width="107" height="107" fill="white"/>
</clipPath>
</defs>
</svg>
