<svg xmlns="http://www.w3.org/2000/svg" width="110" height="79" viewBox="0 0 110 126" fill="none">
  <path d="M100.357 94.3262C97.8508 90.4486 94.837 86.9237 91.396 83.8452C87.9732 80.8796 84.1871 78.3614 80.1289 76.3513C78.8187 75.7224 77.299 74.9887 75.5696 74.3075C74.0346 73.6344 72.4594 73.0568 70.8531 72.5781C70.4566 72.441 70.0224 72.4626 69.6414 72.6384C69.2604 72.8142 68.9623 73.1307 68.8093 73.5214C68.7344 73.7173 68.6994 73.9262 68.7064 74.1359C68.7134 74.3455 68.7623 74.5517 68.8502 74.7421C68.9381 74.9326 69.0632 75.1035 69.2182 75.2449C69.3732 75.3862 69.5549 75.4952 69.7526 75.5652C71.3248 76.2465 72.6873 76.9277 73.945 77.609C75.3155 78.3776 76.6449 79.2172 77.9278 80.1244C81.344 82.461 84.5212 85.1292 87.4132 88.09C90.3049 91.008 92.9679 94.1441 95.3787 97.4705C100.3 104.193 103.861 111.812 105.86 119.9C105.898 120.136 105.982 120.361 106.109 120.563C106.236 120.766 106.402 120.94 106.597 121.077C106.793 121.214 107.014 121.31 107.247 121.36C107.481 121.41 107.722 121.412 107.956 121.367C108.416 121.266 108.819 120.992 109.082 120.602C109.346 120.212 109.449 119.735 109.371 119.271C108.203 110.403 105.128 101.893 100.357 94.3262Z" fill="white"/>
  <path d="M40.1444 29.8676C36.0493 30.6163 31.8845 30.915 27.7244 30.7585C27.4903 30.7159 27.2497 30.7253 27.0196 30.786C26.7895 30.8467 26.5756 30.9571 26.3929 31.1096C26.2102 31.2621 26.0632 31.4528 25.9624 31.6683C25.8615 31.8839 25.8093 32.1189 25.8093 32.3569C25.8093 32.5948 25.8615 32.8299 25.9624 33.0454C26.0632 33.2609 26.2102 33.4517 26.3929 33.6041C26.5756 33.7566 26.7895 33.8671 27.0196 33.9277C27.2497 33.9884 27.4903 33.9978 27.7244 33.9552C33.0256 34.8434 38.4284 34.9494 43.7604 34.2697C47.4043 33.6914 50.9387 32.5604 54.2414 30.9157L65.1941 24.2603C68.548 21.8496 68.548 22.2689 69.8057 23.6314C71.7971 25.78 74.2602 28.8719 76.6184 31.1253C77.506 32.0407 78.4512 32.8984 79.4483 33.6932C79.6238 33.848 79.828 33.9668 80.0494 34.0427C80.2708 34.1186 80.505 34.1502 80.7386 34.1356C80.9721 34.121 81.2006 34.0605 81.4108 33.9576C81.621 33.8547 81.8089 33.7115 81.9637 33.536C82.1186 33.3605 82.2373 33.1562 82.3132 32.9348C82.3891 32.7135 82.4207 32.4793 82.4061 32.2457C82.3915 32.0121 82.331 31.7837 82.2282 31.5735C82.1253 31.3633 81.982 31.1754 81.8065 31.0205C78.6098 27.6666 74.4698 20.9588 72.0067 18.3385C71.3144 17.5379 70.4312 16.9251 69.4389 16.5567C68.5523 16.2755 67.6004 16.2755 66.7138 16.5567C65.1959 17.2716 63.7409 18.113 62.3642 19.0722L51.2543 25.6228C47.8427 27.7071 44.0767 29.146 40.1444 29.8676Z" fill="white"/>
  <path d="M63.0452 77.766C63.0721 79.5527 62.7701 81.3291 62.1543 83.0065C61.4638 83.9644 60.4322 84.6209 59.272 84.8407C57.8417 85.2445 56.3534 85.404 54.87 85.3124C53.072 85.2164 51.3017 84.827 49.6295 84.1595C48.599 83.7956 47.6539 83.2249 46.852 82.4825C46.2698 81.8837 45.8233 81.1666 45.543 80.3799C45.2627 79.5931 45.1551 78.7553 45.2274 77.9232C45.1367 77.245 45.1367 76.5577 45.2274 75.8794C45.0352 75.5417 44.7569 75.2609 44.4209 75.0656C44.085 74.8702 43.7033 74.7673 43.3146 74.7673C42.926 74.7673 42.5443 74.8702 42.2084 75.0656C41.8724 75.2609 41.5941 75.5417 41.4019 75.8794C40.9342 76.9551 40.6848 78.113 40.6682 79.2858C40.4907 81.6575 41.1591 84.0154 42.5548 85.9412C43.6762 87.3107 45.0676 88.4345 46.6424 89.2428C44.1129 94.4675 41.8565 99.82 39.8821 105.279C39.2552 106.969 38.833 108.728 38.6244 110.519C38.6239 111.115 38.7489 111.704 38.9912 112.249C41.3393 116.243 44.2715 119.864 47.6905 122.992C49.6334 124.864 52.2238 125.916 54.9224 125.926C55.6792 125.762 56.3933 125.44 57.0186 124.983C59.4203 123.163 61.7126 121.203 63.8837 119.114C66.0607 117.375 67.8464 115.196 69.1242 112.72C68.8119 108.032 67.9859 103.393 66.6611 98.8853C65.7756 95.5627 64.7084 92.2912 63.4644 89.0855C64.9458 88.1205 66.1261 86.7586 66.8708 85.1552C67.4803 83.1544 67.694 81.0539 67.4996 78.9713C67.456 77.7539 67.2981 76.5433 67.028 75.3554C66.4515 74.3597 63.0976 75.3554 63.15 76.2463C63.2024 77.1372 63.0976 76.7703 63.0452 77.766ZM63.6216 111.043C63.6216 111.043 63.6216 111.41 63.2548 111.567C60.652 114.136 57.8863 116.534 54.9748 118.747C54.5248 119.061 54.0518 119.342 53.5599 119.585L52.8262 119.009C51.5305 118.069 50.3205 117.017 49.2102 115.865C47.4244 114.037 45.7613 112.094 44.2317 110.048V108.318C44.8606 105.384 46.1707 100.824 47.5333 96.7367C48.3193 94.326 49.1054 92.0726 49.7867 90.3433C51.3343 90.8416 52.9347 91.1581 54.5556 91.2866C56.3278 91.3461 58.0979 91.116 59.7961 90.6053C60.7113 93.5487 61.4636 96.5403 62.0495 99.5666C62.8456 103.35 63.371 107.185 63.6216 111.043Z" fill="white"/>
  <path d="M93.7019 32.3834C93.3052 25.7344 90.7683 19.3921 86.47 14.3036C82.2484 9.21729 76.4307 5.7082 69.9624 4.34666C69.7318 4.29265 69.4926 4.28519 69.259 4.32471C69.0255 4.36422 68.8021 4.44992 68.602 4.5768C68.402 4.70367 68.2292 4.86916 68.0939 5.0636C67.9585 5.25804 67.8633 5.47752 67.8138 5.70919C67.719 6.17402 67.8079 6.65751 68.062 7.05814C68.3161 7.45878 68.7155 7.74539 69.1763 7.8578C74.782 9.1626 79.7739 12.3427 83.3257 16.8715C86.8883 21.3555 88.9098 26.8689 89.0903 32.593C89.6012 38.3741 88.6776 44.192 86.4014 49.5307C84.1252 54.8693 80.5666 59.5638 76.0414 63.1976C68.1282 68.9098 56.9135 70.9536 42.7642 67.7569C24.3176 63.8265 17.1905 45.2751 20.9112 29.2391C24.37 14.4608 37.1044 1.7264 59.4814 3.50818C59.688 3.52989 59.8969 3.51042 60.096 3.4509C60.2951 3.39137 60.4804 3.29298 60.6412 3.16141C60.802 3.02983 60.9352 2.86768 61.0329 2.68434C61.1307 2.50099 61.1911 2.30009 61.2108 2.09324C61.2459 1.70158 61.1378 1.31046 60.9066 0.992444C60.6753 0.674423 60.3365 0.451088 59.953 0.363869C34.9034 -2.46601 20.2824 11.631 15.9851 28.0338C11.3211 45.9039 18.9722 66.4467 38.3097 72.7354C36.8424 73.207 35.4274 73.7834 34.0649 74.3599L29.7153 76.5085C24.8861 79.088 20.3375 82.1614 16.1424 85.6794C13.3042 88.0618 10.7382 90.7508 8.49121 93.6974C2.55605 101.099 -0.447267 110.426 0.0539801 119.9C0.122036 120.274 0.319307 120.613 0.611401 120.857C0.903495 121.1 1.27188 121.234 1.65234 121.234C2.03279 121.234 2.40118 121.1 2.69327 120.857C2.98537 120.613 3.18264 120.274 3.25069 119.9C3.73648 113.246 6.13911 106.876 10.1682 101.558C13.0977 97.4595 16.4336 93.667 20.1251 90.2387C23.8181 86.6865 27.7968 83.4439 32.0211 80.5437C33.2788 79.7052 34.5366 78.8668 35.8991 78.1331C37.1834 77.386 38.5137 76.7209 39.8819 76.1417C40.332 75.9659 40.6946 75.6196 40.8908 75.1781C41.0871 74.7365 41.1011 74.2353 40.93 73.7835C48.9216 75.5475 57.2019 75.5475 65.1936 73.7835C70.3377 72.8182 75.2158 70.7633 79.5002 67.7569C84.6099 63.4965 88.5822 58.0345 91.0609 51.8607C93.5396 45.6869 94.447 38.9943 93.7019 32.3834Z" fill="white"/>
  <path d="M44.2315 46.0615C44.5654 46.3943 45.0177 46.5811 45.4892 46.5811C45.9607 46.5811 46.4129 46.3943 46.7469 46.0615C47.083 45.7186 47.2712 45.2576 47.2712 44.7775C47.2712 44.2974 47.083 43.8365 46.7469 43.4936C45.9582 42.2626 44.9042 41.2237 43.6619 40.4529C42.4196 39.6821 41.0206 39.1991 39.5674 39.0392C38.8375 38.9345 38.0963 38.9345 37.3664 39.0392C36.2932 39.1811 35.2595 39.5376 34.3269 40.0873C32.2542 41.3401 30.5817 43.158 29.5056 45.3278C29.2142 45.6305 29.0514 46.0343 29.0514 46.4545C29.0514 46.8747 29.2142 47.2785 29.5056 47.5812C29.6521 47.7317 29.8273 47.8514 30.0208 47.9331C30.2143 48.0148 30.4223 48.0569 30.6323 48.0569C30.8424 48.0569 31.0503 48.0148 31.2438 47.9331C31.4374 47.8514 31.6125 47.7317 31.759 47.5812C33.2257 46.6886 34.8411 46.0673 36.5279 45.747C37.4158 45.4884 38.3298 45.3302 39.253 45.2754C40.0931 45.0653 40.9669 45.0266 41.8222 45.1616C42.6776 45.2967 43.497 45.6027 44.2315 46.0615Z" fill="white"/>
  <path d="M72.5828 44.6465C74.2921 44.8578 75.9459 45.3913 77.4565 46.2187C77.7592 46.5101 78.163 46.6729 78.5832 46.6729C79.0034 46.6729 79.4072 46.5101 79.7099 46.2187C79.8604 46.0722 79.9801 45.897 80.0618 45.7035C80.1435 45.51 80.1856 45.302 80.1856 45.092C80.1856 44.8819 80.1435 44.674 80.0618 44.4804C79.9801 44.2869 79.8604 44.1118 79.7099 43.9653C78.4375 41.9086 76.6247 40.2409 74.4694 39.144C73.4971 38.6821 72.4499 38.3981 71.3775 38.3055C70.6458 38.2282 69.9081 38.2282 69.1765 38.3055C67.7291 38.5588 66.3566 39.1326 65.1597 39.985C63.9628 40.8373 62.9717 41.9466 62.259 43.2316C62.1041 43.4243 61.9888 43.6456 61.9195 43.8829C61.8501 44.1201 61.8282 44.3688 61.855 44.6145C61.8818 44.8603 61.9567 45.0983 62.0754 45.3151C62.1942 45.5319 62.3545 45.7232 62.5472 45.878C62.7399 46.0329 62.9612 46.1483 63.1985 46.2176C63.4358 46.2869 63.6844 46.3088 63.9301 46.282C64.1759 46.2553 64.414 46.1804 64.6308 46.0616C64.8475 45.9428 65.0388 45.7825 65.1937 45.5898C66.5176 44.6046 68.1646 44.1555 69.8053 44.3321C70.74 44.3329 71.6716 44.4384 72.5828 44.6465Z" fill="white"/>
  <path d="M44.2314 60.5777C45.0988 61.3584 46.0475 62.0435 47.0613 62.6215C48.3217 63.302 49.6587 63.8297 51.0441 64.1937C52.4188 64.5116 53.8255 64.6699 55.2365 64.6653C58.1488 64.5743 60.9933 63.7642 63.5165 62.3071C64.2668 61.8556 64.9692 61.3288 65.6127 60.735C66.419 59.9106 67.1717 59.0354 67.8661 58.1147C68.0313 57.9461 68.1616 57.7466 68.2497 57.5276C68.3378 57.3086 68.3818 57.0745 68.3794 56.8384C68.377 56.6024 68.3281 56.3692 68.2355 56.1521C68.1429 55.935 68.0085 55.7382 67.8399 55.573C67.6713 55.4079 67.4718 55.2775 67.2528 55.1895C67.0339 55.1014 66.7997 55.0573 66.5637 55.0598C66.3277 55.0622 66.0944 55.1111 65.8773 55.2037C65.6602 55.2962 65.4634 55.4306 65.2983 55.5992C64.617 56.1233 64.0405 56.6474 63.3069 57.119C62.7478 57.5261 62.1291 57.8443 61.4727 58.0623C59.465 58.6366 57.3646 58.8146 55.2889 58.5863H52.1446C51.1047 58.4714 50.0724 58.2964 49.0527 58.0623C48.0078 57.8201 47.0022 57.432 46.0656 56.9094C45.0175 56.3329 44.0218 55.7041 42.9737 55.0228C42.8317 54.8738 42.661 54.7551 42.4718 54.674C42.2827 54.593 42.079 54.5511 41.8732 54.5511C41.6674 54.5511 41.4637 54.593 41.2745 54.674C41.0853 54.7551 40.9146 54.8738 40.7727 55.0228C40.4846 55.3167 40.3233 55.7118 40.3233 56.1233C40.3233 56.5348 40.4846 56.9299 40.7727 57.2238C41.9256 58.3243 42.9213 59.4772 44.2314 60.5777Z" fill="white"/>
</svg>
