<svg xmlns="http://www.w3.org/2000/svg" width="194" height="179" viewBox="0 0 194 179" fill="none">
  <path fill-rule="evenodd" clip-rule="evenodd" d="M23.4756 8.22027C46.0303 8.22027 69.3074 7.09655 91.8621 8.78213C107.434 9.58479 135.206 8.05974 144.837 15.4442C147.085 17.1298 147.807 32.3 148.449 37.1962C151.011 55.3796 152.111 73.7389 151.74 92.098C151.74 92.7154 151.986 93.3074 152.422 93.7439C152.859 94.1805 153.451 94.4257 154.068 94.4257C154.685 94.4257 155.277 94.1805 155.714 93.7439C156.151 93.3074 156.396 92.7154 156.396 92.098C157.037 73.5257 156.716 54.9326 155.433 36.3936C154.871 28.367 155.914 13.4375 150.055 8.6216C137.132 -1.81295 109.922 0.595022 92.3437 0.113428C68.9863 -0.528699 46.2711 1.71874 23.3151 2.7622C22.9567 2.77274 22.6039 2.85377 22.2768 3.00065C21.9498 3.14754 21.6548 3.3574 21.4089 3.61827C21.1629 3.87914 20.9707 4.1859 20.8433 4.52103C20.7159 4.85617 20.6558 5.21312 20.6663 5.5715C20.6769 5.92988 20.7579 6.28268 20.9048 6.60975C21.0516 6.93682 21.2615 7.23175 21.5224 7.47771C21.7833 7.72367 22.09 7.91584 22.4251 8.04325C22.7603 8.17066 23.1172 8.23081 23.4756 8.22027Z" fill="white"/>
  <path fill-rule="evenodd" clip-rule="evenodd" d="M80.0627 96.5932C56.3843 96.5932 11.7566 100.366 10.6328 100.526C7.90465 74.7794 7.90465 48.8165 10.6328 23.0697C10.5548 19.0344 10.8775 15.0014 11.596 11.0298C13.9237 9.18374 10.6328 5.49151 8.30513 7.73895C5.97742 9.98639 5.97742 19.217 5.41556 22.2671C1.16147 55.8984 -0.764906 64.0053 0.278549 87.6034C0.624674 98.4681 2.29586 109.25 5.25503 119.71C11.596 130.064 43.2207 129.582 54.9395 129.582C51.6014 134.225 50.1655 139.968 50.9263 145.636C46.03 146.117 41.6154 147 37.3613 147.722C36.744 147.722 36.1519 147.968 35.7154 148.404C35.2789 148.841 35.0336 149.433 35.0336 150.05C35.0336 150.668 35.2789 151.26 35.7154 151.696C36.1519 152.133 36.744 152.378 37.3613 152.378C50.2306 155.016 63.5013 155.016 76.3705 152.378C77.073 152.378 77.7467 152.099 78.2435 151.602C78.7402 151.105 79.0193 150.432 79.0193 149.729C79.0193 149.027 78.7402 148.353 78.2435 147.856C77.7467 147.359 77.073 147.08 76.3705 147.08C70.0652 146.156 63.7153 145.567 57.3475 145.314C60.185 140.444 61.6547 134.898 61.6016 129.261L73.0796 128.78C73.7131 128.67 74.2874 128.34 74.7014 127.848C75.1154 127.356 75.3423 126.734 75.3423 126.091C75.3423 125.448 75.1154 124.826 74.7014 124.334C74.2874 123.842 73.7131 123.512 73.0796 123.402C59.1936 123.402 30.2177 123.001 16.8936 118.185C12.7197 116.66 12.2382 117.543 10.8736 105.422C13.1211 105.422 40.1706 106.947 80.2233 105.422C80.7169 105.405 81.2013 105.283 81.6452 105.067C82.0891 104.85 82.4826 104.543 82.8003 104.165C83.118 103.786 83.3528 103.346 83.4896 102.871C83.6264 102.396 83.6621 101.898 83.5944 101.409V99.4827C83.4426 98.6612 83.0045 97.92 82.3579 97.391C81.7113 96.862 80.8981 96.5793 80.0627 96.5932Z" fill="white"/>
  <path fill-rule="evenodd" clip-rule="evenodd" d="M87.2865 65.3693C86.0023 65.3693 70.2702 64.7271 72.6781 70.3457C74.3637 74.359 101.574 74.6801 105.988 74.7604C110.403 74.8406 114.497 74.7604 118.751 74.7604C125.975 74.7604 125.975 66.2522 118.751 66.0917C108.285 65.2474 97.7798 65.0062 87.2865 65.3693Z" fill="white"/>
  <path fill-rule="evenodd" clip-rule="evenodd" d="M186.977 104.619C177.666 96.5928 160.81 101.088 149.412 105.823C145.224 108.268 141.178 110.948 137.292 113.85C127.299 108.254 116.075 105.221 104.624 105.021C95.233 105.021 89.1328 108.793 88.5709 113.85C88.0091 118.907 87.9288 114.492 86.4037 141.782L86.9656 150.21V158.237C87.0666 158.803 87.3441 159.323 87.7583 159.723C88.1726 160.122 88.7025 160.38 89.2722 160.46C89.842 160.54 90.4225 160.438 90.9309 160.169C91.4392 159.899 91.8493 159.476 92.1026 158.959C92.7447 157.836 93.5474 120.994 93.6277 118.826C94.9922 112.726 94.2698 113.208 97.641 112.245C110.718 110.805 123.878 114.109 134.724 121.555C133.409 132.317 134.255 143.232 137.212 153.662C138.577 160.244 142.911 171.802 143.312 153.1C144.428 142.459 143.251 131.703 139.861 121.555L152.784 113.529C160.088 110.639 175.499 105.984 181.358 111.281C182.656 115.087 183.386 119.062 183.525 123.081C184.367 138.025 184.367 153.005 183.525 167.949C177.253 165.312 170.673 163.478 163.94 162.491C155.325 161.87 146.775 164.378 139.861 169.554C131.495 162.294 120.757 158.353 109.681 158.478C102.447 158.711 95.5446 161.563 90.2565 166.504C87.2867 170.116 88.3301 173.247 90.8184 173.327C91.4357 173.327 92.0278 173.082 92.4643 172.645C92.9008 172.209 93.1461 171.617 93.1461 170.999C93.1461 168.431 102.136 163.775 109.841 163.695C115.916 163.833 121.876 165.372 127.259 168.19C131.615 170.257 135.25 173.585 137.694 177.742C138.001 178.06 138.368 178.312 138.775 178.485C139.182 178.658 139.619 178.747 140.061 178.747C140.503 178.747 140.941 178.658 141.348 178.485C141.754 178.312 142.122 178.06 142.429 177.742L144.918 174.049C147.597 172.388 150.565 171.245 153.666 170.678C169.318 167.548 180.475 176.698 185.773 178.303C189.064 179.267 191.632 177.581 192.034 173.006C192.916 162.331 195.565 112.245 186.977 104.619Z" fill="white"/>
  <path fill-rule="evenodd" clip-rule="evenodd" d="M147.245 128.779C146.827 129.226 146.595 129.814 146.595 130.425C146.595 131.036 146.827 131.624 147.245 132.07C148.369 133.435 152.703 130.385 160.328 127.174C170.602 122.84 175.739 131.749 175.258 124.044C174.696 119.388 156.716 116.9 147.245 128.779Z" fill="white"/>
  <path fill-rule="evenodd" clip-rule="evenodd" d="M150.215 146.598C149.797 147.044 149.565 147.633 149.565 148.244C149.565 148.855 149.797 149.443 150.215 149.889C151.338 151.173 155.673 148.203 163.298 144.993C173.572 140.658 178.709 149.568 178.227 141.862C177.666 137.608 159.686 134.719 150.215 146.598Z" fill="white"/>
  <path fill-rule="evenodd" clip-rule="evenodd" d="M115.058 126.933C122.683 130.144 127.018 133.114 128.142 131.83C128.559 131.383 128.791 130.795 128.791 130.184C128.791 129.573 128.559 128.985 128.142 128.539C118.67 116.74 100.691 119.148 100.45 123.803C99.6472 131.509 104.624 122.599 115.058 126.933Z" fill="white"/>
  <path fill-rule="evenodd" clip-rule="evenodd" d="M97.0793 141.542C96.678 149.568 101.815 140.418 112.089 144.753C120.116 147.883 124.049 150.933 125.092 149.649C125.318 149.438 125.498 149.184 125.622 148.901C125.745 148.618 125.809 148.312 125.809 148.003C125.809 147.694 125.745 147.389 125.622 147.106C125.498 146.823 125.318 146.568 125.092 146.358C115.38 134.478 97.3201 136.967 97.0793 141.542Z" fill="white"/>
  <path fill-rule="evenodd" clip-rule="evenodd" d="M40.4113 73.396C49.6245 67.9453 58.1416 61.3959 65.7753 53.8914C67.0629 52.2332 67.6495 50.1365 67.4094 48.0509C67.1693 45.9653 66.1217 44.0567 64.4911 42.7344C62.645 41.2896 46.4313 32.3801 45.0668 31.6577C43.7022 30.9354 37.0402 27.9655 35.5151 29.7314C31.3413 33.8249 40.01 37.7579 57.5882 49.236C51.5695 56.047 44.9029 62.2566 37.6823 67.7774C36.9372 68.1392 36.3664 68.7823 36.0955 69.565C35.8245 70.3478 35.8756 71.2061 36.2375 71.9512C36.5994 72.6962 37.2425 73.267 38.0252 73.538C38.808 73.8089 39.6663 73.7579 40.4113 73.396Z" fill="white"/>
</svg>
