<svg width="93" height="81" viewBox="0 0 93 81" fill="none" xmlns="http://www.w3.org/2000/svg">
<path fill-rule="evenodd" clip-rule="evenodd" d="M11.1963 3.69006C21.9534 3.69006 33.055 3.18562 43.8121 3.94228C51.2387 4.30259 64.4841 3.61799 69.0779 6.93285C70.1498 7.68951 70.4943 14.4994 70.8006 16.6973C72.0221 24.8597 72.547 33.1012 72.3702 41.3425C72.3702 41.6197 72.4871 41.8854 72.6953 42.0814C72.9035 42.2774 73.1859 42.3874 73.4803 42.3874C73.7747 42.3874 74.0571 42.2774 74.2653 42.0814C74.4735 41.8854 74.5905 41.6197 74.5905 41.3425C74.8965 33.0055 74.7431 24.6591 74.1311 16.337C73.8631 12.7339 74.3608 6.03208 71.5662 3.87021C65.4029 -0.813829 52.4255 0.267104 44.0418 0.0509174C32.9019 -0.237331 22.0682 0.771539 11.1197 1.23994C10.9488 1.24468 10.7805 1.28105 10.6245 1.34698C10.4685 1.41292 10.3279 1.50713 10.2106 1.62423C10.0932 1.74133 10.0016 1.87904 9.94082 2.02948C9.88006 2.17992 9.85137 2.34015 9.8564 2.50103C9.86143 2.66191 9.90007 2.82028 9.97012 2.9671C10.0402 3.11392 10.1403 3.24631 10.2647 3.35672C10.3891 3.46714 10.5354 3.5534 10.6952 3.61059C10.8551 3.66779 11.0253 3.69479 11.1963 3.69006Z" fill="#302D3D"/>
<path fill-rule="evenodd" clip-rule="evenodd" d="M38.1847 43.3605C26.8916 43.3605 5.60711 45.054 5.07117 45.1261C3.77 33.5684 3.77 21.9137 5.07117 10.3561C5.03396 8.54465 5.18784 6.73422 5.53055 4.95141C6.64071 4.12269 5.07117 2.46526 3.961 3.47414C2.85084 4.48301 2.85084 8.62658 2.58287 9.99576C0.553947 25.0928 -0.36481 28.7319 0.13285 39.3251C0.297929 44.2022 1.09498 49.0422 2.5063 53.7375C5.53055 58.3855 20.6135 58.1693 26.2026 58.1693C24.6105 60.2533 23.9257 62.8316 24.2885 65.3755C21.9533 65.5917 19.8478 65.9881 17.8189 66.3124C17.5245 66.3124 17.2421 66.4224 17.0339 66.6184C16.8257 66.8144 16.7088 67.0801 16.7088 67.3572C16.7088 67.6344 16.8257 67.9001 17.0339 68.0961C17.2421 68.2921 17.5245 68.4022 17.8189 68.4022C23.9567 69.5864 30.286 69.5864 36.4237 68.4022C36.7588 68.4022 37.0801 68.2769 37.317 68.0539C37.5539 67.8309 37.687 67.5285 37.687 67.2131C37.687 66.8978 37.5539 66.5953 37.317 66.3724C37.0801 66.1494 36.7588 66.0241 36.4237 66.0241C33.4165 65.6092 30.388 65.3446 27.351 65.2314C28.7043 63.0451 29.4053 60.5554 29.3799 58.0252L34.8542 57.809C35.1563 57.7597 35.4303 57.6116 35.6277 57.3907C35.8251 57.1699 35.9334 56.8906 35.9334 56.602C35.9334 56.3134 35.8251 56.034 35.6277 55.8132C35.4303 55.5924 35.1563 55.4442 34.8542 55.3949C28.2315 55.3949 14.4119 55.2148 8.05713 53.0529C6.06649 52.3683 5.8368 52.7647 5.18601 47.324C6.2579 47.324 19.1588 48.0086 38.2613 47.324C38.4967 47.316 38.7277 47.2616 38.9394 47.1643C39.1511 47.0671 39.3388 46.9291 39.4903 46.7593C39.6418 46.5895 39.7538 46.3917 39.8191 46.1787C39.8843 45.9656 39.9014 45.7421 39.8691 45.5224V44.6577C39.7967 44.2889 39.5877 43.9562 39.2793 43.7187C38.971 43.4812 38.5831 43.3543 38.1847 43.3605Z" fill="#302D3D"/>
<path fill-rule="evenodd" clip-rule="evenodd" d="M41.6299 29.3449C41.0174 29.3449 33.5142 29.0567 34.6627 31.5789C35.4666 33.3804 48.444 33.5246 50.5495 33.5606C52.655 33.5966 54.6074 33.5606 56.6363 33.5606C60.0816 33.5606 60.0816 29.7413 56.6363 29.6692C51.6449 29.2902 46.6345 29.182 41.6299 29.3449Z" fill="#302D3D"/>
<path fill-rule="evenodd" clip-rule="evenodd" d="M89.1757 46.9629C84.7351 43.3598 76.696 45.3776 71.26 47.5034C69.2624 48.6008 67.3325 49.8037 65.4795 51.1065C60.7134 48.5947 55.3605 47.233 49.8989 47.1431C45.42 47.1431 42.5106 48.8366 42.2426 51.1065C41.9746 53.3765 41.9363 51.3948 41.209 63.6453L41.477 67.4286V71.0317C41.5251 71.286 41.6575 71.5194 41.855 71.6987C42.0526 71.8779 42.3053 71.9938 42.5771 72.0298C42.8488 72.0658 43.1257 72.02 43.3681 71.899C43.6106 71.7779 43.8062 71.5879 43.927 71.356C44.2332 70.8516 44.616 54.3133 44.6543 53.3404C45.3051 50.6021 44.9606 50.8183 46.5684 50.3859C52.8054 49.7396 59.0816 51.2228 64.2545 54.5655C63.6273 59.3961 64.0307 64.296 65.4412 68.9779C66.092 71.9325 68.1592 77.121 68.3506 68.7257C68.8829 63.9492 68.3216 59.1207 66.7045 54.5655L72.8678 50.9624C76.3514 49.6653 83.7015 47.5755 86.496 49.9535C87.1151 51.6617 87.4633 53.4464 87.5296 55.2501C87.9309 61.9586 87.9309 68.683 87.5296 75.3915C84.5382 74.2076 81.3997 73.3844 78.1889 72.9414C74.0801 72.6627 70.0023 73.7885 66.7045 76.1121C62.7144 72.853 57.5933 71.0839 52.3106 71.1398C48.8607 71.2444 45.5686 72.5248 43.0465 74.7429C41.6301 76.3643 42.1277 77.7695 43.3145 77.8056C43.6089 77.8056 43.8913 77.6955 44.0995 77.4995C44.3077 77.3036 44.4246 77.0378 44.4246 76.7607C44.4246 75.6077 48.7122 73.5179 52.3872 73.4818C55.2843 73.544 58.127 74.2345 60.6943 75.4996C62.7718 76.4276 64.5055 77.9213 65.6709 79.7873C65.8173 79.93 65.9927 80.0435 66.1867 80.1211C66.3808 80.1986 66.5894 80.2386 66.8002 80.2386C67.011 80.2386 67.2196 80.1986 67.4136 80.1211C67.6077 80.0435 67.7831 79.93 67.9295 79.7873L69.1162 78.1298C70.3943 77.3842 71.8097 76.8709 73.2889 76.6165C80.7538 75.2113 86.0749 79.3189 88.6015 80.0395C90.1711 80.4719 91.3961 79.7152 91.5875 77.6614C92.0086 72.8693 93.2719 50.3859 89.1757 46.9629Z" fill="#302D3D"/>
<path fill-rule="evenodd" clip-rule="evenodd" d="M70.2262 57.8086C70.0271 58.0089 69.9163 58.2729 69.9163 58.5473C69.9163 58.8216 70.0271 59.0856 70.2262 59.2859C70.7622 59.8984 72.8294 58.5292 76.4661 57.088C81.3661 55.1423 83.8162 59.1418 83.5865 55.6828C83.3185 53.593 74.7434 52.476 70.2262 57.8086Z" fill="#302D3D"/>
<path fill-rule="evenodd" clip-rule="evenodd" d="M71.6426 65.8073C71.4434 66.0076 71.3326 66.2717 71.3326 66.546C71.3326 66.8203 71.4434 67.0843 71.6426 67.2846C72.1785 67.8611 74.2457 66.5279 77.8825 65.0867C82.7825 63.141 85.2325 67.1405 85.0029 63.6815C84.7349 61.7718 76.1598 60.4747 71.6426 65.8073Z" fill="#302D3D"/>
<path fill-rule="evenodd" clip-rule="evenodd" d="M54.8752 56.9798C58.512 58.421 60.5792 59.7542 61.1151 59.1777C61.3143 58.9774 61.4251 58.7134 61.4251 58.4391C61.4251 58.1648 61.3143 57.9007 61.1151 57.7004C56.5979 52.4039 48.0228 53.4848 47.908 55.5746C47.5252 59.0336 49.8986 55.0341 54.8752 56.9798Z" fill="#302D3D"/>
<path fill-rule="evenodd" clip-rule="evenodd" d="M46.3005 63.5371C46.109 67.1402 48.5591 63.0326 53.4591 64.9783C57.2873 66.3835 59.163 67.7527 59.6607 67.1762C59.7685 67.0818 59.8545 66.9675 59.9133 66.8404C59.9721 66.7133 60.0025 66.5762 60.0025 66.4376C60.0025 66.2989 59.9721 66.1618 59.9133 66.0347C59.8545 65.9076 59.7685 65.7933 59.6607 65.6989C55.0286 60.3663 46.4153 61.4833 46.3005 63.5371Z" fill="#302D3D"/>
<path fill-rule="evenodd" clip-rule="evenodd" d="M19.2736 32.9465C23.6677 30.4997 27.7297 27.5597 31.3705 24.1909C31.9846 23.4466 32.2644 22.5054 32.1499 21.5692C32.0354 20.6329 31.5357 19.7762 30.758 19.1826C29.8776 18.5341 22.1447 14.5346 21.4939 14.2103C20.8431 13.886 17.6658 12.5529 16.9384 13.3456C14.9478 15.1832 19.0822 16.9487 27.4658 22.1011C24.5953 25.1586 21.4157 27.9461 17.972 30.4243C17.6167 30.5868 17.3444 30.8754 17.2152 31.2268C17.086 31.5782 17.1103 31.9635 17.2829 32.2979C17.4555 32.6324 17.7622 32.8886 18.1356 33.0102C18.5089 33.1319 18.9182 33.1089 19.2736 32.9465Z" fill="#302D3D"/>
</svg>
