<svg width="90" height="90" viewBox="0 0 95 94" fill="none" xmlns="http://www.w3.org/2000/svg">
  <path fill-rule="evenodd" clip-rule="evenodd" d="M92.7375 83.425C90.0779 78.878 87.052 74.5554 83.69 70.5C87.3717 68.4634 92.9333 64.8209 89.6433 62.0792C88.39 61.0609 65.2817 51.7784 63.6758 51.23C63.5061 51.1683 63.3259 51.1406 63.1454 51.1485C62.965 51.1565 62.7879 51.1999 62.6242 51.2762C62.2937 51.4305 62.038 51.7097 61.9133 52.0525C61.7887 52.3953 61.8053 52.7736 61.9596 53.1041C62.1138 53.4346 62.393 53.6904 62.7358 53.815C65.0467 54.6375 82.7108 62.6667 86.04 64.3117C85.3206 64.935 84.5321 65.4738 83.69 65.9175C79.7733 68.1892 78.8333 67.9934 78.4808 69.4425C78.1283 70.8917 79.2642 71.0092 86.04 80.9967C86.9564 82.2328 87.7686 83.5429 88.4683 84.9134C86.3465 86.5498 83.9981 87.8692 81.4967 88.83C80.5132 87.5921 79.623 86.283 78.8333 84.9134C73.4675 76.3359 73.5458 74.26 71 75.3567C69.59 75.9834 66.7308 80.0567 64.185 81.7409C63.9108 80.9575 63.5192 80.1742 63.48 79.8608C62.7358 76.1792 61.4042 65.2125 61.13 60.5517C61.13 59.1025 61.4433 58.4367 61.13 57.81C61.0448 57.667 60.9292 57.5444 60.7914 57.451C60.6536 57.3575 60.497 57.2956 60.3325 57.2694C60.1681 57.2432 59.9999 57.2536 59.8399 57.2996C59.68 57.3456 59.532 57.4263 59.4067 57.5359C58.6625 58.045 58.78 59.3767 58.8192 60.6692C59.033 68.5329 59.6868 76.3785 60.7775 84.1692C61.13 85.6184 61.9525 86.5584 63.4408 86.3234C64.3138 86.017 65.1536 85.6234 65.9475 85.1483C67.9421 83.8173 69.7813 82.2671 71.4308 80.5267C73.3892 84.2084 77.5017 92.2767 80.3217 93.4909C82.515 94.3525 88.7817 89.5742 90.0742 88.6342C91.3667 87.6942 93.6383 85.54 92.7375 83.425Z" fill="#F5F5F5"/>
  <path fill-rule="evenodd" clip-rule="evenodd" d="M11.6625 10.9275C23.5221 11.7005 35.423 11.5827 47.265 10.575C47.587 10.575 47.8958 10.4471 48.1235 10.2194C48.3512 9.99171 48.4792 9.68288 48.4792 9.36086C48.4792 9.03885 48.3512 8.73002 48.1235 8.50232C47.8958 8.27462 47.587 8.1467 47.265 8.1467C26.2325 5.99253 32.2642 6.65836 11.545 8.1467C11.3624 8.15441 11.1831 8.19801 11.0174 8.27502C10.8516 8.35202 10.7027 8.46091 10.579 8.59548C10.4554 8.73005 10.3594 8.88766 10.2967 9.0593C10.2339 9.23095 10.2056 9.41327 10.2133 9.59586C10.221 9.77845 10.2646 9.95774 10.3417 10.1235C10.4187 10.2892 10.5275 10.4382 10.6621 10.5618C10.9339 10.8116 11.2937 10.9431 11.6625 10.9275Z" fill="#F5F5F5"/>
  <path fill-rule="evenodd" clip-rule="evenodd" d="M28.23 37.7175C21.129 36.5999 13.8847 36.7723 6.845 38.2267C6.0225 29.4533 6.21833 30.785 7.1975 11.75C7.43642 11.5423 7.58302 11.2481 7.60505 10.9323C7.62709 10.6164 7.52275 10.3048 7.315 10.0658C7.10725 9.82693 6.81309 9.68033 6.49725 9.65829C6.18141 9.63626 5.86975 9.74059 5.63083 9.94835C4.41667 11.0058 4.41667 13.9825 4.41667 15.1183C2.53185 23.1058 1.88459 31.3353 2.4975 39.5192C2.63554 42.6581 3.28375 45.7536 4.41667 48.6842C6.68833 51.935 16.5975 51.8567 20.6317 51.8175C19.7161 52.9672 19.0572 54.2995 18.6992 55.7249C18.3411 57.1503 18.2923 58.6358 18.5558 60.0817C17.0948 60.2351 15.6672 60.6184 14.3258 61.2175C14.0461 61.2684 13.793 61.4158 13.6108 61.6341C13.4287 61.8524 13.3289 62.1278 13.3289 62.4121C13.3289 62.6964 13.4287 62.9718 13.6108 63.1901C13.793 63.4084 14.0461 63.5558 14.3258 63.6067C15.8299 64.2762 17.4578 64.6222 19.1042 64.6222C20.7505 64.6222 22.3785 64.2762 23.8825 63.6067C24.2014 63.5522 24.4908 63.3867 24.6994 63.1394C24.908 62.8921 25.0224 62.579 25.0224 62.2554C25.0224 61.9319 24.908 61.6188 24.6994 61.3715C24.4908 61.1242 24.2014 60.9587 23.8825 60.9042L21.7675 60.3559C23.1794 57.7473 23.7149 54.7538 23.295 51.8175C23.295 51.6217 22.8642 51.8175 26.2717 51.6217C26.6352 51.6217 26.9839 51.4773 27.241 51.2202C27.4981 50.9631 27.6425 50.6144 27.6425 50.2508C27.6425 49.8873 27.4981 49.5386 27.241 49.2815C26.9839 49.0244 26.6352 48.88 26.2717 48.88C20.4194 48.9777 14.5778 48.3461 8.88167 47C7.6675 46.53 7.98083 46.7258 7.70667 45.2375C7.4325 43.7492 7.315 42.77 7.11917 41.3208C15.9708 42.3783 15.7358 42.1433 28.3083 40.7333C28.7083 40.723 29.0877 40.5541 29.3631 40.264C29.6386 39.9739 29.7875 39.5862 29.7771 39.1863C29.7667 38.7863 29.5979 38.4069 29.3077 38.1315C29.0176 37.856 28.6299 37.7071 28.23 37.7175Z" fill="#F5F5F5"/>
  <path fill-rule="evenodd" clip-rule="evenodd" d="M81.105 45.5116C82.647 45.1211 84.0212 44.2417 85.0217 43.005C86.3142 40.8116 85.0217 9.67415 84.8258 7.75498C84.711 7.58052 84.5531 7.43863 84.3674 7.34303C84.1818 7.24742 83.9746 7.20133 83.7658 7.2092C83.5571 7.21708 83.354 7.27866 83.176 7.38799C82.9981 7.49731 82.8514 7.6507 82.75 7.83331C82.75 19.7791 82.2017 41.4775 81.81 41.36C81.0147 41.428 80.2277 41.5722 79.46 41.7908C72.2925 43.3183 58.7408 42.065 58.7017 40.8508C58.7017 40.5375 57.3308 9.71331 59.0933 4.81748C60.3003 4.16319 61.6388 3.7884 63.01 3.72081C62.9606 5.09363 63.0129 6.46823 63.1667 7.83331C64.3808 12.9641 73.2717 14.9225 77.3058 12.22C79.3267 10.0903 80.5331 7.31701 80.7133 4.38665C81.2826 4.49758 81.8449 4.64143 82.3975 4.81748C82.5726 4.89832 82.7627 4.94133 82.9555 4.94368C83.1483 4.94604 83.3394 4.90769 83.5164 4.83115C83.6934 4.75461 83.8522 4.64159 83.9826 4.49948C84.1129 4.35737 84.2118 4.18937 84.2727 4.00644C84.3337 3.82352 84.3554 3.62979 84.3364 3.43791C84.3174 3.24603 84.2582 3.06031 84.1625 2.89289C84.0668 2.72547 83.9369 2.58012 83.7813 2.46632C83.6256 2.35252 83.4477 2.27284 83.2592 2.23248C77.8542 0.313313 58.1142 -1.95835 55.8425 3.13331C53.7667 7.55915 53.1792 38.6575 54.6283 42.77C56.4692 48.3708 75.3867 47.235 81.105 45.5116ZM78.0108 3.91665C77.5392 5.74817 76.5936 7.42321 75.2692 8.77331C73.8482 9.06784 72.3818 9.06784 70.9608 8.77331C66.1433 7.83331 66.3392 7.08915 65.3208 3.91665C65.3523 3.72208 65.3523 3.52372 65.3208 3.32915C69.5598 3.09052 73.8121 3.28739 78.0108 3.91665Z" fill="#F5F5F5"/>
  <path fill-rule="evenodd" clip-rule="evenodd" d="M50.3592 33.6441C45.457 33.3874 40.5426 33.7958 35.75 34.8583C30.7758 36.8558 31.1283 62.2749 34.0267 68.7374C35.985 72.8891 45.4633 71.6749 50.2025 71.3224C50.3603 71.3175 50.5155 71.2809 50.6588 71.2146C50.8021 71.1484 50.9306 71.054 51.0366 70.937C51.1427 70.82 51.224 70.6829 51.2759 70.5338C51.3277 70.3847 51.3489 70.2266 51.3383 70.0691C51.3383 68.0324 48.6358 69.5991 41.3117 68.5416C40.6458 68.5416 37.7475 67.8758 37.395 67.3274C36.1578 58.2379 36.0263 49.0319 37.0033 39.9108C37.0033 39.1666 37.7867 38.4224 37.5125 38.1874C39.9546 37.4913 42.4611 37.0451 44.9933 36.8558C44.6408 38.9316 44.68 42.8091 43.7792 49.0758C43.5089 54.9221 43.7579 60.7809 44.5233 66.5833C44.5233 68.1891 47.2258 68.1891 47.2258 66.5833C47.5392 63.0583 48.1267 59.5333 48.3225 56.0083C48.644 49.4752 48.4475 42.927 47.735 36.4249H50.4375C50.6201 36.4198 50.7999 36.3787 50.9666 36.3041C51.1333 36.2295 51.2837 36.1227 51.4092 35.99C51.5347 35.8572 51.6328 35.7011 51.6979 35.5304C51.763 35.3598 51.7939 35.1779 51.7888 34.9953C51.7836 34.8128 51.7426 34.633 51.6679 34.4662C51.5933 34.2995 51.4866 34.1491 51.3538 34.0236C51.2211 33.8982 51.0649 33.8001 50.8942 33.7349C50.7236 33.6698 50.5418 33.639 50.3592 33.6441Z" fill="#F5F5F5"/>
</svg>
