<svg width="170" height="49" viewBox="0 0 170 49" fill="none" xmlns="http://www.w3.org/2000/svg">
<g id="EnSage 1" clip-path="url(#clip0_470_194)">
<g id="Clip path group">
<mask id="mask0_470_194" style="mask-type:luminance" maskUnits="userSpaceOnUse" x="0" y="0" width="170" height="49">
<g id="clip0_401_5991">
<path id="Vector" d="M170 0H0V49H170V0Z" fill="white"/>
</g>
</mask>
<g mask="url(#mask0_470_194)">
<g id="Group">
<path id="Vector_2" d="M26.8517 0.736211C27.3296 0.736211 27.6021 0.834775 27.6021 1.52472V9.75709C27.6307 10.0575 27.4061 10.3203 27.1001 10.3485C27.0668 10.3485 27.0333 10.3485 26.9998 10.3485C26.6127 10.3672 26.2828 10.0809 26.2495 9.70546C26.2495 6.65 24.089 2.26628 19.08 2.26628H16.8145C14.8549 2.26628 12.9001 2.51035 12.0971 3.39741V17.8862H16.9627C19.1709 17.8862 21.881 17.1494 22.4832 13.1082C22.5835 12.5169 22.9611 12.2212 23.1857 12.2212C23.4103 12.2212 23.6637 12.4652 23.6637 12.958C23.6637 14.6336 23.3099 15.9149 23.3099 18.8719C23.3099 22.1573 23.6637 23.096 23.6637 24.2928C23.6637 24.7857 23.4629 25.0345 23.1857 25.0345C22.9085 25.0345 22.5835 24.7387 22.4832 24.1474C21.881 20.3502 19.2713 19.5618 16.9627 19.5618H12.0971V24.7246C12.0971 28.2213 12.2501 32.2623 12.3982 33.6423C12.6515 35.8107 13.6027 36.9277 19.0227 36.9277C23.2861 36.9277 27.2007 33.5249 28.8065 28.2025C28.9595 27.6628 29.2845 27.4141 29.6094 27.4141C29.9345 27.4093 30.2069 27.6628 30.2165 27.982C30.2165 28.0053 30.2165 28.0288 30.2165 28.0569C30.2165 28.944 28.209 36.5803 27.908 37.519C27.7599 38.0494 27.2628 38.4155 26.7036 38.4061H0.755173C0.253318 38.4061 0 38.1104 0 37.8148C0 37.519 0.305892 37.0731 0.955915 37.0731C4.87039 37.0731 5.62556 35.8904 5.8741 32.9852C5.97447 31.6052 6.17522 28.104 6.17522 21.3031V18.0833C6.17522 11.3341 5.97447 7.33994 5.8741 5.96007C5.60644 3.11111 4.97077 2.06916 1.20923 2.06916C0.607006 2.06916 0.305892 1.72184 0.305892 1.37922C0.325011 1.00843 0.645243 0.717438 1.02283 0.736211C1.03239 0.736211 1.04195 0.736211 1.05629 0.736211H26.8517Z" fill="white"/>
<path id="Vector_3" d="M44.321 13.1082C47.5328 10.447 50.1425 8.3772 53.756 8.3772C57.9188 8.3772 60.3804 11.5312 60.3804 15.7694V33.3606C60.3804 36.3175 61.3363 37.1577 64.0416 37.1577C64.6438 37.1577 64.9449 37.5003 64.9449 37.8476C64.9449 38.195 64.6963 38.439 64.1945 38.439H50.5918C50.0851 38.439 49.8366 38.1432 49.8366 37.8476C49.8366 37.5519 50.1377 37.1577 50.7399 37.1577C53.6986 37.1577 54.6019 35.3835 54.6019 23.7999C54.6019 13.4743 53.0485 11.8269 50.5392 11.8269C48.2785 11.8269 46.2758 13.648 42.7102 16.4078C42.6577 18.0364 42.6577 20.4488 42.6577 22.8144V24.9358C42.6195 27.6675 42.7199 30.3944 42.9588 33.1166C43.3603 36.0735 43.4654 37.1577 46.5722 37.1577C47.227 37.1577 47.5281 37.5003 47.5281 37.8476C47.5281 38.195 47.2747 38.439 46.7729 38.439H32.9743C32.4725 38.439 32.2191 38.1432 32.2191 37.8476C32.2191 37.5519 32.5251 37.1577 33.1225 37.1577C37.2903 37.106 37.2903 34.595 37.2903 24.9545V22.6078C37.2903 16.4454 37.2377 11.6157 34.0258 11.6157H32.6206C32.1426 11.6157 31.9706 11.3716 31.9706 11.1464C31.9706 10.1607 39.1973 9.02958 40.9561 9.02958C42.0555 9.02958 42.868 9.71952 42.868 11.442C42.868 12.0334 42.868 13.3664 42.8155 14.3989L44.321 13.1082Z" fill="white"/>
<path id="Vector_4" d="M77.0371 37.0081C80.1965 37.0081 84.7131 35.5297 84.7131 30.3058C84.7131 23.1623 67.4493 20.5998 67.4493 9.85632C67.4493 2.51102 73.4717 0 79.5464 0C82.3807 0 85.1863 0.535057 87.8151 1.57701C88.1927 1.75536 88.4173 2.15432 88.3696 2.56265V10.5932C88.3982 11.0015 88.078 11.3535 87.6621 11.3817C87.6479 11.3817 87.6288 11.3817 87.6144 11.3817C87.1603 11.3723 86.7971 11.0062 86.8066 10.5603C86.8066 10.5369 86.8066 10.5181 86.8066 10.4946C86.7588 5.66504 83.0929 1.91964 78.777 1.91964C75.0632 1.91964 72.8551 3.79703 72.8551 7.98362C72.8551 16.507 89.617 18.0371 89.617 27.8934C89.617 36.0741 83.4944 38.9325 77.0229 38.9325C73.9448 38.9089 70.8954 38.3222 68.0373 37.2052C67.5354 37.0081 67.4351 36.5153 67.3872 35.7269C67.2868 34.2484 66.785 28.1374 66.785 27.6963C66.7324 27.3443 66.981 27.0157 67.3442 26.9593C67.373 26.9593 67.4063 26.9547 67.4351 26.9547C67.803 26.9453 68.1329 27.1894 68.2141 27.546C70.2549 33.9057 72.6639 37.0081 77.0324 37.0081H77.0371Z" fill="white"/>
<path id="Vector_5" d="M107.851 20.0549C107.851 13.897 106.594 9.85592 102.431 9.85592C99.2192 9.85592 98.3636 12.8128 98.3636 15.2253C98.3589 15.9715 98.4449 16.7179 98.617 17.4454C98.0531 17.5814 97.4746 17.6518 96.8962 17.6611C94.5066 17.6611 93.2304 16.2297 93.2304 14.2115C93.2304 10.7101 97.3456 8.39624 103.669 8.39624C109.591 8.39624 113.458 10.513 113.458 16.5769C113.458 18.3512 113.156 22.9837 113.156 30.3242C113.156 34.0791 113.156 35.7968 115.164 35.7968C117.018 35.7968 117.076 33.4501 117.774 33.4501C118.122 33.4501 118.223 33.6941 118.223 34.2386C118.223 36.5524 116.669 38.9696 113.003 38.9696C110.695 39.0635 108.592 37.6882 107.784 35.5669C105.739 37.707 102.895 38.9368 99.9075 38.9696C95.4385 38.9696 92.1263 36.5055 92.1263 32.2674C92.1263 24.8751 99.4534 23.2465 105.509 23.2465C106.312 23.2465 107.062 23.2981 107.818 23.345L107.851 20.0549ZM102.88 35.6794C104.582 35.7358 106.245 35.2149 107.598 34.2011C107.851 32.5723 107.851 27.3486 107.851 24.739H106.747C101.676 24.739 98.0148 26.7103 98.0148 31.2441C98.0148 34.2011 99.9217 35.6794 102.88 35.6794Z" fill="white"/>
<path id="Vector_6" d="M137.107 9.21379C136.844 8.38305 136.71 7.51945 136.705 6.65116C136.705 4.33726 137.762 2.07031 140.773 2.07031C142.627 2.07031 143.884 3.25307 143.884 4.83007C143.861 5.76408 143.483 6.65585 142.828 7.33641C142.374 6.89052 141.762 6.62769 141.122 6.59953C139.769 6.59953 138.612 8.00758 138.565 9.80049C141.432 11.1804 143.029 13.6445 143.029 17.3899C143.029 23.3037 137.609 25.6692 131.739 25.6692C130.478 25.6692 129.221 25.5706 127.973 25.3734C126.721 26.2136 126.119 27.3447 126.119 28.382C126.119 29.5647 126.922 30.5973 128.575 30.7945L136.156 31.6815C141.275 32.273 144.587 35.2814 144.587 40.1298C144.587 45.6493 140.472 49.0004 131.386 49.0004C123.557 49.0004 118.538 46.8322 118.538 42.1011C118.538 38.994 121.301 37.173 124.274 37.173C125.105 37.1588 125.923 37.3466 126.664 37.7126C125.11 38.8955 124.455 39.9326 124.455 41.6552C124.455 44.4714 126.515 47.4705 132.184 47.4705C137.403 47.4705 140.367 45.4992 140.367 42.2466C140.367 39.6839 139.31 37.3701 134.794 36.8772L127.921 36.1356C124.006 35.6945 122.099 34.2583 122.099 31.2592C122.099 28.6448 124.207 26.0962 126.616 24.9979C122.348 23.9137 119.638 21.2432 119.638 17.4087C119.638 11.3963 125.211 8.39244 131.032 8.39244C133.087 8.33142 135.142 8.60833 137.107 9.21379ZM130.984 23.8012C135.286 23.8012 137.007 20.8958 137.007 16.9017C137.007 12.9076 135.353 10.0023 131.271 10.0023C127.189 10.0023 125.603 13.3535 125.603 17.3946C125.603 21.4356 127.008 23.8012 130.984 23.8012Z" fill="white"/>
<path id="Vector_7" d="M159.289 38.9318C151.814 38.9318 146.542 34.2008 146.542 24.5416C146.542 15.4221 151.111 8.3772 160.345 8.3772C164.508 8.3772 169.98 10.5925 169.98 17.9848C169.98 19.7589 169.078 20.4019 166.917 20.4019H152.416C152.416 29.7889 155.876 35.1348 161.397 35.1348C164.81 35.1348 167.17 34.1022 169.044 30.3052C169.13 30.0752 169.349 29.9204 169.598 29.9109C169.9 29.9109 170 30.1596 170 30.5023C169.98 33.5578 166.969 38.9318 159.289 38.9318ZM152.516 19.1206L161.75 18.4776C163.404 18.3791 163.705 17.7408 163.705 16.6565C163.705 12.1226 162.271 9.9542 159.341 9.9542C155.126 9.9542 153.119 14.291 152.516 19.1206Z" fill="white"/>
</g>
</g>
</g>
</g>
<defs>
<clipPath id="clip0_470_194">
<rect width="170" height="49" fill="white"/>
</clipPath>
</defs>
</svg>
