<svg xmlns="http://www.w3.org/2000/svg" width="91" height="90" viewBox="0 0 121 119" fill="none">
  <path fill-rule="evenodd" clip-rule="evenodd" d="M52.8431 53.0444C53.1978 52.7969 53.4395 52.4186 53.5152 51.9927C53.5909 51.5669 53.4944 51.1285 53.2468 50.7738C52.9992 50.4192 52.6209 50.1774 52.1951 50.1017C51.7693 50.026 51.3308 50.1226 50.9762 50.3701C48.9578 51.3289 46.9395 52.1867 45.0221 53.2967C43.6942 54.0782 42.4137 54.9375 41.1872 55.8701C40.448 56.4182 39.7404 57.0079 39.068 57.6362C38.4459 58.2478 38.0388 59.0444 37.9074 59.9068C37.861 60.5444 37.9595 61.1843 38.1954 61.7785C38.4313 62.3727 38.7986 62.9058 39.2698 63.338C40.8385 64.4829 42.5311 65.4477 44.3156 66.2141L48.3019 67.7279C48.7703 67.8708 49.2761 67.8239 49.7102 67.5974C50.1444 67.3709 50.4722 66.9828 50.623 66.5169C50.7682 66.055 50.7284 65.5548 50.5119 65.1217C50.2954 64.6887 49.9191 64.3567 49.4624 64.1958L46.8386 62.3288C46.8386 62.3288 45.6276 61.471 44.8202 60.8655L45.5266 60.5123L52.8431 53.0444Z" fill="white"/>
  <path fill-rule="evenodd" clip-rule="evenodd" d="M59.5036 54.2047C58.7972 56.0212 58.1412 57.8377 57.5862 59.7046C56.3752 63.9936 55.6183 68.3835 54.3568 72.622C54.2586 72.8466 54.2069 73.0888 54.2048 73.334C54.2026 73.5791 54.2501 73.8221 54.3444 74.0484C54.4387 74.2747 54.5778 74.4796 54.7534 74.6507C54.929 74.8218 55.1374 74.9556 55.366 75.044C55.8286 75.2119 56.338 75.1956 56.7888 74.9983C57.2397 74.8011 57.5974 74.4381 57.788 73.9844C59.2513 71.1083 60.6137 68.1817 61.8247 65.1542C63.0357 62.1266 63.9944 59.301 65.2559 56.4248L70.3017 42.1955C70.4715 41.7936 70.4768 41.3411 70.3164 40.9353C70.1559 40.5296 69.8427 40.203 69.4439 40.0258C69.2485 39.9427 69.0386 39.899 68.8262 39.8972C68.6138 39.8953 68.4032 39.9354 68.2063 40.0151C68.0095 40.0947 67.8303 40.2125 67.679 40.3615C67.5277 40.5106 67.4073 40.688 67.3247 40.8836C65.5082 43.9616 63.4898 46.8377 61.7742 49.9662C60.9354 51.3336 60.1773 52.7488 59.5036 54.2047Z" fill="white"/>
  <path fill-rule="evenodd" clip-rule="evenodd" d="M71.866 64.8518C71.4523 65.1204 71.1617 65.5418 71.0577 66.024C70.9537 66.5062 71.0448 67.0099 71.311 67.4252C71.4392 67.6283 71.6066 67.804 71.8032 67.942C71.9998 68.0801 72.2219 68.1777 72.4566 68.2294C72.6912 68.281 72.9338 68.2855 73.1702 68.2428C73.4066 68.2 73.6322 68.1108 73.8339 67.9802L78.2238 66.0628C79.2734 65.6376 80.272 65.096 81.2008 64.4481C81.8945 63.9783 82.5372 63.4371 83.1183 62.8335C83.6376 62.2251 84.094 61.5658 84.4806 60.8656C84.7009 60.3474 84.7796 59.7801 84.7086 59.2215C84.6377 58.663 84.4197 58.1333 84.077 57.6867C83.1776 56.5179 82.0855 55.5111 80.8476 54.7096C78.2403 53.3955 75.5218 52.3148 72.7238 51.4803C72.3453 51.2687 71.9006 51.2083 71.4793 51.3113C71.0581 51.4143 70.6914 51.673 70.4532 52.0353C70.2333 52.417 70.1736 52.8701 70.287 53.2957C70.4005 53.7212 70.678 54.0845 71.0587 54.306L75.7009 58.0399C76.4017 58.5397 77.0599 59.0966 77.6687 59.705L75.6504 61.8243L71.866 64.8518Z" fill="white"/>
  <path fill-rule="evenodd" clip-rule="evenodd" d="M120.306 49.6637C120.061 48.5662 119.653 47.5117 119.095 46.5352C118.637 45.7271 117.929 45.0897 117.077 44.7187C115.666 44.2356 114.176 44.0299 112.687 44.1132C110.921 44.1132 109.104 44.6178 107.641 44.9206C107.792 43.4443 107.792 41.9565 107.641 40.4802C107.511 39.6566 107.308 38.8462 107.036 38.0582C106.713 37.2769 106.307 36.5326 105.825 35.838C105.034 34.9165 104.096 34.1322 103.049 33.5169C105.175 32.1791 107.169 30.6416 109.003 28.9252C109.708 28.291 110.267 27.5114 110.642 26.6403C111.016 25.7692 111.198 24.8273 111.173 23.8794C111.032 23.2412 110.794 22.6285 110.467 22.0629C109.814 21.132 109.089 20.2546 108.297 19.439C105.95 16.5058 103.117 13.9969 99.9209 12.0216C98.9689 11.4278 97.9306 10.9852 96.8429 10.7097C95.9662 10.3714 94.9949 10.3714 94.1181 10.7097C92.7701 11.3499 91.5679 12.2602 90.5861 13.384C89.5769 14.595 88.6182 15.9574 87.7604 17.2189C86.2731 15.6748 84.5742 14.3497 82.7145 13.2831C81.8303 12.8051 80.9006 12.4163 79.9393 12.1225C79.0112 11.7958 78.0442 11.5923 77.0632 11.517C75.5548 11.3362 74.0303 11.3362 72.5219 11.517C72.9447 9.67968 73.1646 7.80148 73.1779 5.91615C73.1184 5.0095 72.8726 4.12486 72.4558 3.31745C72.0391 2.51005 71.4604 1.79724 70.7559 1.22351C70.2436 0.853306 69.659 0.595392 69.0403 0.466631C67.9395 0.273609 66.8268 0.155601 65.71 0.113421C63.863 -0.0378071 62.0066 -0.0378071 60.1596 0.113421C58.2953 0.220233 56.4407 0.456273 54.6091 0.81984C53.5091 1.05647 52.4533 1.46516 51.4807 2.03084C50.6708 2.50214 50.0206 3.2051 49.6138 4.04918C49.1679 5.41547 48.9797 6.85268 49.0587 8.2877C49.0587 10.1042 49.5633 12.0216 49.866 13.7372C48.4066 13.5867 46.9356 13.5867 45.4762 13.7372C44.6082 13.889 43.7613 14.143 42.9532 14.4941C42.0635 14.8614 41.2309 15.3542 40.4808 15.9574C39.5363 16.6856 38.6583 17.4961 37.8569 18.3794C36.679 16.6363 35.4161 14.9524 34.0725 13.3335C33.0417 12.211 31.7868 11.3172 30.3891 10.7097C29.5075 10.398 28.5458 10.398 27.6643 10.7097C26.578 11.0132 25.5413 11.4721 24.5863 12.0721C22.9882 13.0623 21.4699 14.1758 20.0451 15.4023C18.6484 16.6644 17.3496 18.0307 16.1598 19.4895C15.4007 20.3202 14.693 21.1965 14.0405 22.1133C13.7131 22.6789 13.4748 23.2916 13.3341 23.9298C13.3098 24.873 13.4862 25.8106 13.8515 26.6805C14.2169 27.5504 14.7629 28.3327 15.4534 28.9757C17.025 30.4232 18.7126 31.7396 20.4992 32.9114C19.6277 33.6151 18.8019 34.3735 18.0267 35.1821C17.4781 35.8781 17.0203 36.6411 16.6644 37.4527C16.2812 38.2574 15.9934 39.1041 15.8066 39.9756C15.4391 41.8525 15.3036 43.7675 15.4029 45.6774C13.1202 45.1955 10.8123 44.8418 8.49008 44.6178C7.00409 44.4949 5.50881 44.6839 4.10019 45.1729C3.23649 45.5503 2.52537 46.2081 2.08185 47.0398C1.51617 48.0125 1.10747 49.0682 0.870847 50.1682C0.469358 51.9609 0.21621 53.7836 0.113969 55.6178C-0.0379898 57.4816 -0.0379898 59.3548 0.113969 61.2187C0.149461 62.3526 0.26751 63.4825 0.467179 64.5994C0.604026 65.2311 0.860976 65.8307 1.22406 66.3654C1.86083 67.0638 2.64206 67.6152 3.51343 67.9811C4.3848 68.3471 5.32542 68.5189 6.26991 68.4847C8.52969 68.4205 10.7776 68.1332 12.9809 67.6269C12.8544 68.8852 12.8544 70.153 12.9809 71.4113C13.1456 72.2869 13.3819 73.1476 13.6873 73.9847C14.1433 74.8324 14.6664 75.6423 15.2515 76.4067C16.1669 77.8935 17.2139 79.2952 18.3799 80.5947C16.7148 81.7553 14.4946 83.2186 12.6781 84.7323C11.5543 85.7142 10.6441 86.9164 10.0038 88.2644C9.6962 89.1466 9.6962 90.107 10.0038 90.9892C10.2974 92.079 10.7569 93.1171 11.3662 94.0671C12.3565 95.6652 13.4699 97.1836 14.6965 98.6084C15.9586 100.005 17.3249 101.304 18.7836 102.494C19.6144 103.253 20.4906 103.96 21.4075 104.613C21.9613 104.964 22.5783 105.204 23.224 105.319C24.1684 105.354 25.1091 105.182 25.9804 104.816C26.8518 104.45 27.633 103.899 28.2698 103.2C29.7568 101.649 31.0916 99.9598 32.256 98.1543C33.0591 99.2688 33.9906 100.285 35.0312 101.182C36.5229 102.295 38.2484 103.054 40.0771 103.402C42.1324 103.837 44.2398 103.973 46.334 103.806C46.8219 103.863 47.3126 103.725 47.6999 103.423C48.0872 103.121 48.3397 102.678 48.4027 102.191C48.4324 101.706 48.277 101.228 47.968 100.854C47.6589 100.479 47.2192 100.236 46.7376 100.173C45.0874 99.512 43.4857 98.7364 41.9441 97.8515C40.8844 97.3469 39.9257 96.7919 38.8156 96.3378C31.4992 93.2598 31.4992 92.8561 30.3891 94.0671C29.279 95.2781 28.068 96.6405 26.4028 98.2552C25.7932 98.9711 25.0579 99.5696 24.2331 100.021C24.5359 99.3148 22.7194 98.457 22.3662 98.0534C21.1927 96.9551 20.081 95.7928 19.0359 94.5717C17.9576 93.4024 16.9468 92.1726 16.0084 90.8883C16.0084 90.8883 15.2011 90.2323 14.9992 89.8791C14.9847 89.9795 14.9847 90.0814 14.9992 90.1818V89.8286V89.5763H15.2515C15.6334 88.7748 16.1448 88.0417 16.7653 87.4066C18.3295 85.5397 20.2974 83.7736 21.4075 82.3608C21.6554 82.1374 21.8162 81.8336 21.8616 81.503C22.0448 81.2075 22.1419 80.8667 22.1419 80.519C22.1419 80.1713 22.0448 79.8306 21.8616 79.5351C21.2561 77.769 20.8524 75.9525 20.2974 74.0856C20.1081 73.3151 19.8722 72.5568 19.5909 71.8149C19.5909 71.1085 19.0359 70.3516 18.7332 69.6957C17.8196 68.0743 17.027 66.3878 16.3616 64.6498C16.3109 64.2261 16.0993 63.838 15.7707 63.5657C15.442 63.2934 15.0214 63.1576 14.5956 63.1865C14.2274 63.2393 13.8888 63.4175 13.6368 63.6911H8.591C7.81113 63.8527 7.01022 63.8868 6.21945 63.792C6.92587 63.4893 6.21945 61.6223 6.21945 61.0673V56.0214C6.21945 54.1545 6.47174 52.8425 6.72403 51.2783C6.69865 50.8077 6.69865 50.3361 6.72403 49.8655C7.57114 49.5769 8.45415 49.4071 9.34787 49.3609H16.1093C17.8249 49.3609 18.6827 47.3426 18.7332 46.838C19.3848 45.2001 20.1607 43.6144 21.0542 42.0949C21.5588 41.0857 22.1139 40.127 22.568 39.0674C23.0221 38.0078 23.7285 35.8885 24.3845 34.2738C24.5837 34.2182 24.7689 34.1209 24.9278 33.9884C25.0866 33.856 25.2156 33.6913 25.3062 33.5054C25.3968 33.3194 25.4469 33.1164 25.4533 32.9096C25.4597 32.7029 25.4222 32.4971 25.3432 32.3059C25.431 32.0296 25.4348 31.7333 25.3539 31.4548C25.2731 31.1763 25.1113 30.9281 24.8891 30.7417C24.6119 30.6415 24.3084 30.6415 24.0313 30.7417C23.123 29.8839 21.912 28.7738 20.6506 27.5124C19.9497 26.8882 19.3535 26.1556 18.8845 25.3427C19.5909 25.4436 20.2974 23.4252 20.8524 23.4252C21.9507 22.2518 23.113 21.14 24.334 20.095C25.5206 19.0162 26.7673 18.0055 28.068 17.0675C28.068 17.0675 28.7239 16.2601 29.0267 16.0583H28.7239H29.0771H29.3799C30.1905 16.4507 30.9387 16.9608 31.6001 17.5721C33.1643 18.884 34.5267 20.3473 35.6872 21.5078V22.3152C35.7996 22.4948 35.9473 22.6498 36.1214 22.7707C36.2955 22.8915 36.4923 22.9757 36.6999 23.0182C36.9076 23.0607 37.1217 23.0605 37.3292 23.0177C37.5368 22.9749 37.7335 22.8904 37.9074 22.7693C39.8248 22.0629 41.7927 21.8106 43.811 21.0537C44.8794 20.6608 45.924 20.2059 46.9394 19.6913C51.9853 17.2693 53.4991 18.4299 53.3981 16.4115V15.6546V9.70053C53.4443 8.80681 53.6141 7.9238 53.9027 7.07669C53.9027 7.07669 53.9027 7.07669 53.9027 6.8244V6.52165C53.8935 6.62236 53.8935 6.72369 53.9027 6.8244C54.3733 6.79902 54.845 6.79902 55.3156 6.8244C56.8798 6.57211 58.4944 6.42073 60.3614 6.31982C62.2284 6.2189 63.5908 6.31982 65.4073 6.31982C65.9118 6.31982 67.8293 7.02623 68.0816 6.31982C68.3584 7.21714 68.4612 8.15912 68.3843 9.09503V14.8978C68.3843 17.4711 69.9485 15.8565 76.6595 18.1271L79.7879 19.0858C80.9485 19.3886 82.0081 19.5399 83.0677 19.8427C86.398 20.9528 86.2466 24.8885 88.4163 22.7693C89.6778 21.6087 91.3934 19.6409 93.4622 18.0766C94.1236 17.4654 94.8717 16.9552 95.6824 16.5629C95.9851 16.5629 96.4392 17.4207 96.6411 17.5721C97.9418 18.51 99.1884 19.5208 100.375 20.5996C101.596 21.6446 102.758 22.7564 103.857 23.9298C104.21 24.283 105.118 26.0995 105.825 25.7968C105.356 26.6098 104.759 27.3423 104.058 27.9665C102.494 29.5812 100.728 31.0949 99.9209 31.8518C99.702 31.8437 99.4841 31.8848 99.2832 31.9722C99.0824 32.0595 98.9037 32.1908 98.7603 32.3564C98.6061 32.5026 98.4833 32.6786 98.3994 32.8738C98.3154 33.069 98.2721 33.2792 98.2721 33.4917C98.2721 33.7042 98.3154 33.9144 98.3994 34.1096C98.4833 34.3048 98.6061 34.4809 98.7603 34.627C99.4462 36.0264 99.971 37.4991 100.325 39.0169C100.513 39.6165 100.732 40.206 100.98 40.783C104.361 48.2508 102.646 49.1591 104.815 49.0582C106.985 48.9572 109.155 49.0582 111.577 49.0582C112.468 49.0893 113.351 49.2421 114.201 49.5123C114.201 49.5123 114.201 49.5123 114.453 49.5123C114.478 49.9829 114.478 50.4545 114.453 50.9251C114.705 52.4389 114.857 54.104 114.958 55.6682C115.058 57.2324 114.958 58.948 114.958 60.7141C114.958 61.2187 114.302 63.1361 114.958 63.3884C114.06 63.6652 113.118 63.768 112.182 63.6911C110.905 63.7695 109.625 63.7695 108.347 63.6911H106.38C103.655 63.6911 105.976 64.7003 102.797 72.1682C102.192 73.581 101.737 75.0443 101.233 76.4571C98.0539 85.2369 94.9255 83.5213 96.9943 85.3883C98.1548 86.6497 100.123 88.3653 101.687 90.4341C102.282 91.1086 102.79 91.8544 103.201 92.6543C103.201 92.6543 103.201 92.6543 103.201 92.9066V93.2598C103.223 93.1601 103.223 93.0568 103.201 92.9571C102.948 93.3103 102.343 93.7139 102.191 93.9158C101.254 95.2165 100.243 96.4631 99.164 97.6497C98.1189 98.8707 97.0071 100.033 95.8337 101.131C95.4301 101.535 93.664 102.393 93.9668 103.099C93.1338 102.66 92.3963 102.06 91.7971 101.333C90.1319 99.7185 88.5677 97.902 87.8108 97.0947C85.9439 95.0763 86.2466 98.0534 80.343 99.0625C79.0815 99.0625 77.82 99.3653 76.609 99.668C74.3889 100.122 72.3705 100.98 70.0999 101.384C69.8691 101.378 69.64 101.425 69.4301 101.521C69.2202 101.617 69.035 101.76 68.8889 101.939C68.6239 102.092 68.4047 102.313 68.2539 102.579C68.103 102.845 68.0261 103.147 68.0311 103.452V109.255C68.0942 110.194 67.9743 111.137 67.6779 112.03C67.4256 111.273 65.5586 112.03 65.0036 112.03H59.9577C58.0908 112.03 56.7789 111.778 55.2146 111.526C54.744 111.551 54.2724 111.551 53.8018 111.526C53.7926 111.626 53.7926 111.728 53.8018 111.829V111.526V111.273C53.489 110.433 53.3185 109.546 53.2972 108.65V101.888C53.3109 101.679 53.2822 101.468 53.2129 101.27C53.1435 101.072 53.035 100.89 52.8937 100.734C52.7525 100.579 52.5814 100.454 52.3906 100.366C52.1999 100.278 51.9934 100.229 51.7835 100.223C51.5713 100.209 51.3586 100.238 51.1574 100.306C50.9563 100.375 50.7707 100.483 50.6113 100.624C50.4519 100.764 50.3218 100.935 50.2286 101.126C50.1353 101.317 50.0807 101.525 50.0679 101.737C49.8156 103.755 49.0082 106.783 48.8064 109.81C48.6835 111.296 48.8725 112.791 49.3615 114.2C49.7516 115.055 50.406 115.763 51.2284 116.218C52.2011 116.784 53.2568 117.193 54.3568 117.429C56.1845 117.846 58.0392 118.132 59.9073 118.287C61.7712 118.439 63.6443 118.439 65.5082 118.287C66.642 118.249 67.7717 118.131 68.8889 117.934C69.5206 117.797 70.1202 117.54 70.6549 117.177C71.348 116.536 71.8958 115.754 72.2613 114.884C72.6269 114.013 72.8018 113.075 72.7742 112.131C72.7068 109.872 72.4195 107.624 71.9164 105.42C73.3506 105.819 74.8213 106.073 76.3063 106.177C77.272 106.223 78.2394 106.138 79.1824 105.925C80.1355 105.763 81.0667 105.493 81.9576 105.118C83.6 104.371 85.1425 103.421 86.5494 102.292C87.5959 103.916 88.7955 105.437 90.1319 106.833C90.7749 107.524 91.5572 108.07 92.4271 108.435C93.297 108.8 94.2346 108.977 95.1778 108.952C95.8234 108.837 96.4404 108.597 96.9943 108.246C97.9111 107.594 98.7874 106.886 99.6181 106.127C102.537 103.745 105.043 100.898 107.036 97.7001C107.627 96.7467 108.069 95.7088 108.347 94.6222C108.63 93.7359 108.63 92.7838 108.347 91.8974C107.688 90.5478 106.761 89.3462 105.623 88.3653C104.361 87.3057 102.898 86.2965 101.536 85.3378C103.554 83.4896 105.258 81.3252 106.581 78.9296C107.697 77.0487 108.514 75.006 109.003 72.8746C109.269 71.2048 109.42 69.519 109.458 67.8287C111.12 68.1684 112.808 68.3709 114.503 68.4342C115.446 68.4553 116.383 68.2775 117.252 67.9123C118.122 67.5472 118.904 67.0029 119.549 66.315C119.912 65.7802 120.169 65.1806 120.306 64.5489C120.503 63.4317 120.621 62.302 120.659 61.1682C120.811 59.3043 120.811 57.4312 120.659 55.5673C120.709 53.593 120.591 51.618 120.306 49.6637Z" fill="white"/>
  <path fill-rule="evenodd" clip-rule="evenodd" d="M61.6229 24.7371C44.1138 21.4573 30.7927 33.1637 25.646 47.8471C22.6135 55.2929 22.3128 63.5714 24.7969 71.2176C27.281 78.8639 32.3898 85.3849 39.2193 89.6267C45.2106 92.8334 51.9009 94.5112 58.6963 94.5112C65.4917 94.5112 72.182 92.8334 78.1733 89.6267C82.9908 87.2749 87.2379 83.9011 90.6185 79.7405C93.9992 75.5798 96.4323 70.7322 97.7483 65.5352C99.0644 60.3383 99.2318 54.9169 98.2388 49.6487C97.2459 44.3804 95.1165 39.3919 91.9989 35.0306C89.5404 31.8901 86.4327 29.3176 82.8883 27.4888C79.3439 25.66 75.4464 24.6181 71.4623 24.4344C71.203 24.3737 70.9338 24.3692 70.6726 24.4212C70.4115 24.4732 70.1645 24.5804 69.9482 24.7357C69.7319 24.891 69.5513 25.0908 69.4186 25.3216C69.2859 25.5524 69.204 25.809 69.1786 26.074C69.1532 26.3391 69.1848 26.6065 69.2712 26.8584C69.3577 27.1102 69.497 27.3407 69.6798 27.5342C69.8627 27.7278 70.0848 27.88 70.3313 27.9807C70.5778 28.0813 70.843 28.1281 71.1091 28.1178C74.5321 28.3352 77.8656 29.3021 80.8738 30.9501C83.882 32.598 86.4913 34.8868 88.5173 37.6545C92.4266 43.3896 94.3415 50.2512 93.9668 57.1819C93.6229 62.9713 91.714 68.5589 88.4438 73.3486C85.1737 78.1383 80.6648 81.9507 75.398 84.379C70.2941 87.0915 64.6024 88.51 58.8224 88.51C53.0425 88.51 47.3508 87.0915 42.2468 84.379C29.1276 77.0626 26.3524 62.0259 30.3891 49.3609C34.4257 36.6958 45.5266 25.6454 61.1688 27.916C61.5903 27.9893 62.0236 27.8923 62.3737 27.6463C62.7237 27.4003 62.9618 27.0255 63.0357 26.6041C63.0713 26.388 63.0626 26.1669 63.01 25.9543C62.9575 25.7417 62.8622 25.542 62.7301 25.3673C62.5979 25.1927 62.4316 25.0467 62.2412 24.9384C62.0509 24.8301 61.8405 24.7616 61.6229 24.7371Z" fill="white"/>
</svg>
