<svg xmlns="http://www.w3.org/2000/svg" width="146" height="31" viewBox="0 0 146 31" fill="none">
  <g>
    <path d="M4.52194 29.4809H5.02194V28.9809V27.1432C5.80768 27.3294 6.64883 27.4211 7.54333 27.4211C8.55686 27.4211 9.45893 27.114 10.2274 26.4963C11.0093 25.8788 11.5889 24.9809 11.9894 23.8445C12.3924 22.7008 12.5856 21.3149 12.5856 19.7013C12.5856 17.4206 12.2556 15.6662 11.5109 14.5336C10.7901 13.4171 9.81567 12.7986 8.60148 12.7974C7.56389 12.7828 6.55484 13.1227 5.58256 13.779C5.38803 13.9075 5.20116 14.0448 5.02194 14.1906V11.6358C5.61378 11.1631 6.29845 10.7697 7.0798 10.4578L7.07982 10.4578L7.08611 10.4552C7.86969 10.13 8.74978 9.96316 9.73333 9.96316C11.2035 9.96316 12.3891 10.3685 13.3262 11.152C14.2845 11.9531 15.0228 13.0734 15.5262 14.5406C16.0322 16.0149 16.29 17.7124 16.29 19.6401C16.29 21.936 15.8874 23.8229 15.1095 25.3238C14.3247 26.8244 13.2737 27.9395 11.9594 28.6894C10.6348 29.4452 9.14642 29.827 7.4825 29.827C6.1878 29.827 4.92082 29.7141 3.68113 29.4888C3.66758 29.4862 3.65404 29.4836 3.64051 29.4809H4.52194ZM4.02194 16.9992V25.7791C3.51141 25.5763 3.00718 25.3251 2.50917 25.0245L2.0916 24.7726L1.8293 25.1837L0.5 27.2675V0.5H1.98722C2.87315 0.5 3.33704 0.718672 3.56174 1.00327L3.56677 1.00963L3.572 1.01583C3.83488 1.32744 4.02194 1.92026 4.02194 2.91645V11.1672C3.48361 11.6296 3.01504 12.0963 2.6185 12.5676L2.4674 12.7472L2.50904 12.9782L3.17821 16.69L3.42824 18.0769L4.02194 16.9992ZM4.02194 12.5238V15.1884C3.99491 15.2214 3.96813 15.2546 3.9416 15.2882L3.53551 13.0356C3.68599 12.8657 3.84809 12.6951 4.02194 12.5238ZM4.02194 28.4809H0.912047L2.4154 26.1243C2.94132 26.413 3.47687 26.6541 4.02194 26.847V28.4809Z" fill="#FDC022" stroke="#FDC022"/>
    <path d="M46.152 10.798L46.1518 10.798L46.1593 10.8089C46.3542 11.0898 46.5013 11.4507 46.5883 11.9033C46.2589 12.2006 45.9465 12.5129 45.6513 12.8404L45.5227 12.9831V13.1752V17.5397L46.4644 17.774C46.5326 17.6453 46.604 17.5199 46.6785 17.3977V29.5687C46.4919 29.5911 46.2893 29.6097 46.0704 29.6244L46.062 29.6249L46.0537 29.6258C45.6647 29.6649 45.2759 29.6844 44.8871 29.6844C44.4983 29.6844 44.1095 29.6649 43.7205 29.6258L43.7122 29.6249L43.7039 29.6244C43.48 29.6094 43.2706 29.5902 43.0754 29.567V10.1265H44.5627C45.4011 10.1265 45.8813 10.3849 46.152 10.798ZM46.5227 13.3696C46.574 13.3145 46.626 13.2597 46.6785 13.2055V15.7277C46.6256 15.7865 46.5737 15.8461 46.5227 15.9066V13.3696ZM49.5975 13.6334C48.9313 13.9187 48.2918 14.3073 47.6785 14.7952V12.9509C47.6785 12.7287 47.6697 12.5135 47.6515 12.3058C48.2311 11.8259 48.8651 11.3905 49.5543 10.9996L49.5543 10.9996L49.5578 10.9976C50.7529 10.3071 52.0321 9.96338 53.4038 9.96338C54.5968 9.96338 55.5081 10.2435 56.1827 10.7582L56.1827 10.7583L56.186 10.7608C56.8999 11.2962 57.4332 12.0234 57.7814 12.9617L57.7814 12.9617L57.7835 12.9672C58.1499 13.9202 58.3382 15.0136 58.3382 16.2548V25.5344C58.3382 26.28 58.3942 26.9941 58.5072 27.676L58.5072 27.6761C58.5956 28.2096 58.7403 28.6989 58.9457 29.1395C58.7174 29.2849 58.4492 29.4165 58.1373 29.532L58.1373 29.532C57.6812 29.701 57.1994 29.7864 56.6888 29.7864C55.8636 29.7864 55.4174 29.5649 55.1854 29.2558C54.9092 28.8734 54.7352 28.2617 54.7352 27.3496V17.3154C54.7352 16.005 54.5681 14.9573 54.1632 14.2544C53.7181 13.456 52.8848 13.1239 51.8627 13.1239C51.1454 13.1239 50.3895 13.3003 49.6005 13.6321L49.6005 13.6321L49.5975 13.6334Z" fill="#FDC022" stroke="#FDC022"/>
    <path d="M70.0072 30.0008C69.6287 30.0688 69.2298 30.1164 68.8108 30.1436C68.4053 30.1707 68.02 30.1844 67.655 30.1844C67.29 30.1844 66.8912 30.1707 66.4586 30.1436C66.026 30.1164 65.6204 30.0688 65.2419 30.0008V2.38634L65.5258 2.1416H69.9667V4.24226C69.9667 5.31638 69.9734 6.39731 69.9869 7.48502C70.0004 8.57271 70.0072 9.63324 70.0072 10.6666V30.0008ZM81.829 2.1416C81.9239 2.41353 81.9847 2.71945 82.0115 3.05936C82.0521 3.39928 82.0723 3.71879 82.0723 4.01792C82.0723 4.79292 81.8558 5.35717 81.4234 5.71068C80.991 6.0506 80.3286 6.22055 79.4364 6.22055H73.6572C72.5622 6.22055 71.5551 6.21375 70.6358 6.20015C69.7301 6.17296 68.8851 6.14577 68.1011 6.11858V2.1416H81.829ZM79.6189 14.0317C79.7 14.3309 79.754 14.6707 79.7811 15.0515C79.8217 15.4322 79.8419 15.7517 79.8419 16.01C79.8419 16.2819 79.8217 16.6015 79.7811 16.9686C79.754 17.3357 79.7 17.6756 79.6189 17.9883H71.5281C71.0143 17.9883 70.4533 17.9815 69.845 17.9679C69.2367 17.9543 68.6892 17.9408 68.2025 17.9271V14.0929C68.6892 14.0793 69.2367 14.0658 69.845 14.0521C70.4533 14.0385 71.0143 14.0317 71.5281 14.0317H79.6189Z" fill="#A394DD"/>
    <path d="M93.4853 17.662C93.3499 17.662 93.1268 17.662 92.8162 17.662C92.5185 17.6483 92.2143 17.6416 91.9037 17.6416C91.606 17.6279 91.3829 17.6212 91.2345 17.6212C90.7746 17.6212 90.3017 17.6279 89.815 17.6416C89.3422 17.6552 88.8685 17.662 88.3956 17.662V13.583C88.8685 13.583 89.3422 13.5898 89.815 13.6034C90.3017 13.617 90.7746 13.6238 91.2345 13.6238C91.3829 13.6238 91.606 13.6238 91.9037 13.6238C92.2143 13.6102 92.5185 13.6034 92.8162 13.6034C93.1268 13.5898 93.3499 13.583 93.4853 13.583H99.8931C100.029 13.583 100.244 13.5898 100.542 13.6034C100.853 13.6034 101.164 13.6102 101.475 13.6238C101.785 13.6238 102.008 13.6238 102.144 13.6238C102.617 13.6238 103.091 13.617 103.563 13.6034C104.036 13.5898 104.503 13.583 104.963 13.583V17.662C104.503 17.662 104.036 17.6552 103.563 17.6416C103.091 17.6279 102.617 17.6212 102.144 17.6212C102.008 17.6212 101.785 17.6279 101.475 17.6416C101.164 17.6416 100.853 17.6483 100.542 17.662C100.244 17.662 100.029 17.662 99.8931 17.662H93.4853ZM91.275 30.0008C90.8963 30.0687 90.4907 30.1164 90.0584 30.1435C89.6261 30.1707 89.227 30.1843 88.862 30.1843C88.5375 30.1843 88.1523 30.1707 87.7062 30.1435C87.26 30.1164 86.861 30.0687 86.5098 30.0008V2.14156C86.861 2.07358 87.26 2.02599 87.7062 1.9988C88.1523 1.97161 88.5375 1.95801 88.862 1.95801C89.227 1.95801 89.6261 1.97161 90.0584 1.9988C90.4907 2.02599 90.8963 2.07358 91.275 2.14156V10.6054C91.275 11.1764 91.2686 11.6863 91.2548 12.135C91.241 12.57 91.2345 13.0664 91.2345 13.6238V17.6212C91.2345 18.1651 91.241 18.6613 91.2548 19.11C91.2686 19.5587 91.275 20.0685 91.275 20.6396V30.0008ZM102.103 20.6396C102.103 20.0685 102.11 19.5587 102.124 19.11C102.137 18.6613 102.144 18.1651 102.144 17.6212V13.6238C102.144 13.0664 102.137 12.57 102.124 12.135C102.11 11.6863 102.103 11.1764 102.103 10.6054V2.14156C102.468 2.07358 102.86 2.02599 103.279 1.9988C103.712 1.97161 104.104 1.95801 104.456 1.95801C104.794 1.95801 105.186 1.97161 105.632 1.9988C106.078 2.02599 106.483 2.07358 106.848 2.14156V30.0008C106.483 30.0687 106.092 30.1164 105.672 30.1435C105.253 30.1707 104.861 30.1843 104.496 30.1843C104.131 30.1843 103.732 30.1707 103.3 30.1435C102.88 30.1164 102.482 30.0687 102.103 30.0008V20.6396Z" fill="#A394DD"/>
    <path d="M114.078 2.14156C114.429 2.07358 114.828 2.02599 115.274 1.9988C115.72 1.97161 116.106 1.95801 116.43 1.95801C116.795 1.95801 117.187 1.97161 117.606 1.9988C118.039 2.02599 118.444 2.07358 118.823 2.14156V30.0008C118.444 30.0687 118.039 30.1164 117.606 30.1435C117.187 30.1707 116.795 30.1843 116.43 30.1843C116.106 30.1843 115.72 30.1707 115.274 30.1435C114.828 30.1164 114.429 30.0687 114.078 30.0008V2.14156Z" fill="#A394DD"/>
    <path d="M144.569 10.4218C144.569 11.6863 144.333 12.8216 143.86 13.8277C143.4 14.8339 142.778 15.6769 141.994 16.3567C141.223 17.0365 140.372 17.5396 139.439 17.8659C140.128 18.097 140.71 18.5389 141.183 19.1916C141.67 19.8306 142.062 20.558 142.359 21.3738L144.042 25.881C144.326 26.656 144.61 27.2679 144.894 27.7166C145.178 28.1652 145.509 28.546 145.887 28.8587C145.577 29.2937 145.117 29.6473 144.508 29.9192C143.9 30.1775 143.292 30.3067 142.683 30.3067C141.805 30.3067 141.163 30.062 140.757 29.5725C140.352 29.083 139.974 28.3624 139.622 27.4106L137.715 22.1488C137.405 21.2651 136.972 20.5172 136.418 19.9054C135.864 19.2935 134.971 18.9876 133.741 18.9876H128.813V15.3166C129.395 15.2894 130.071 15.2621 130.841 15.235C131.626 15.2078 132.39 15.1874 133.133 15.1738C133.876 15.1602 134.485 15.1534 134.958 15.1534C136.215 15.1534 137.182 14.9223 137.857 14.46C138.547 13.9841 139.02 13.3858 139.277 12.6652C139.548 11.9447 139.682 11.1968 139.682 10.4218C139.682 9.61966 139.548 8.8582 139.277 8.13761C139.02 7.417 138.547 6.83235 137.857 6.38367C137.182 5.92138 136.215 5.69024 134.958 5.69024C134.417 5.69024 133.748 5.69024 132.95 5.69024C132.167 5.67665 131.437 5.66305 130.76 5.64946V30.0008C130.382 30.0687 129.977 30.1164 129.543 30.1435C129.125 30.1707 128.732 30.1843 128.367 30.1843C128.057 30.1843 127.678 30.1707 127.232 30.1435C126.786 30.1164 126.387 30.0687 126.035 30.0008V2.3659L126.319 2.10077C127.874 2.07358 129.395 2.04638 130.882 2.01919C132.369 1.9784 133.822 1.95801 135.242 1.95801C137.121 1.95801 138.757 2.27753 140.149 2.91656C141.555 3.55559 142.643 4.50055 143.413 5.75143C144.184 7.00231 144.569 8.55913 144.569 10.4218Z" fill="#A394DD"/>
    <path d="M26.952 30.288L27.2122 30.3652V30.2951H27.6149H27.7083L27.769 30.2236C27.8271 30.1551 27.8862 30.0972 27.9515 30.0331C27.9954 29.9899 28.0422 29.9439 28.0936 29.8901C28.2069 29.7712 28.3297 29.6241 28.3878 29.4418C28.4934 29.1104 28.4153 28.807 28.1851 28.5812C27.9678 28.3679 27.6315 28.2387 27.2372 28.1835C24.2878 27.7708 21.6649 25.028 21.4234 22.1174C21.2729 20.302 21.8061 18.6409 22.5904 16.9859C22.635 17.5744 22.6795 18.1665 22.7249 18.7697C22.7672 19.3318 22.8103 19.9037 22.8548 20.4916L22.8954 21.0299L23.2188 20.5991C26.4059 16.3523 27.4872 11.5397 28.0167 6.5362C28.933 8.11927 29.8124 9.70844 30.6237 11.3297C31.5202 13.1238 32.1929 15.0014 32.4997 17.035L32.5544 17.3983L32.832 17.1595C34.1801 15.9992 34.9427 14.5854 35.4947 12.9368C35.5139 12.978 35.5328 13.0184 35.5514 13.0582C35.715 13.4077 35.8547 13.7061 35.9738 14.0171C36.8707 16.3576 37.2012 18.585 36.8665 20.6857C36.5323 22.7845 35.5316 24.7729 33.7396 26.634C32.9226 27.4811 31.9949 28.0458 30.8369 28.1843C30.6098 28.2114 30.3645 28.2563 30.1574 28.3756C29.9388 28.5014 29.7757 28.7024 29.7038 29.0077C29.6281 29.3314 29.6905 29.5961 29.8463 29.8102C29.9934 30.0121 30.2132 30.1547 30.4224 30.27L30.4679 30.2951H30.5198H31.0046H31.0336L31.0614 30.2869C33.4966 29.5721 35.258 28.3027 36.5183 26.6248C37.7761 24.9502 38.5268 22.8797 38.9616 20.5723C38.9799 20.4748 39.0032 20.3833 39.0282 20.2851C39.0415 20.2325 39.0553 20.1781 39.0692 20.1199L39.0747 20.0965V20.0725V18.1415V18.125L39.0721 18.1088C39.045 17.9414 39.0191 17.7719 38.993 17.6016C38.9401 17.2572 38.8867 16.909 38.8228 16.5657C38.2991 13.7529 37.1582 11.2127 35.299 9.02089C35.0836 8.76727 34.8312 8.55092 34.5778 8.35048C34.4808 8.27379 34.3855 8.2007 34.2916 8.12867C34.1338 8.00771 33.9801 7.8898 33.8289 7.76277L33.6855 7.64219L33.5544 7.77621C33.5104 7.82114 33.4651 7.86624 33.4187 7.91247L33.3302 8.00055L33.3682 8.1198C33.8404 9.59872 34.0998 11.0267 33.5055 12.4619C31.7067 8.27485 29.7422 4.20234 25.7907 1.46378L25.4041 1.1958L25.4753 1.66263C25.8166 3.90166 26.0238 6.10168 25.7233 8.32698C25.5705 9.46036 25.2628 10.9316 24.9293 12.1898C24.7627 12.8187 24.5905 13.391 24.4292 13.8392C24.3672 14.0112 24.3075 14.1633 24.2509 14.2924C24.1987 14.0542 24.1516 13.8126 24.1039 13.568L24.0959 13.5272C24.0126 13.1006 23.9267 12.6656 23.8089 12.2404C23.5724 11.3869 23.2032 10.5583 22.448 9.8667L22.1679 9.6103L22.111 9.98687C22.0569 10.3448 22.0121 10.6928 21.9683 11.033C21.8726 11.777 21.7816 12.4843 21.6081 13.1789C21.4309 13.8901 21.1755 14.5745 20.9156 15.2714C20.7972 15.5885 20.678 15.9081 20.5647 16.2341C20.4827 16.4703 20.3962 16.708 20.3093 16.9472C20.1143 17.4839 19.9166 18.0281 19.7585 18.5796C19.0148 21.1753 19.2985 23.4737 20.2726 25.3616C21.2451 27.2464 22.8982 28.7082 24.8726 29.6499C25.2085 29.81 25.5635 29.9195 25.9144 30.0138C26.0496 30.0501 26.182 30.0836 26.3128 30.1167C26.5284 30.1714 26.7397 30.2249 26.952 30.288Z" fill="#FDC022"/>
    <path d="M35.9738 14.0171C35.8547 13.7061 35.715 13.4077 35.5514 13.0582C35.5328 13.0184 35.5139 12.978 35.4947 12.9368C34.9427 14.5854 34.1801 15.9992 32.832 17.1595L32.5544 17.3983L32.4997 17.035C32.1929 15.0014 31.5202 13.1238 30.6237 11.3297C29.8124 9.70844 28.933 8.11927 28.0167 6.5362C27.4872 11.5397 26.4059 16.3523 23.2188 20.5991L22.8954 21.0299L22.8548 20.4916C22.8103 19.9037 22.7672 19.3318 22.7249 18.7697C22.6795 18.1665 22.635 17.5744 22.5904 16.9859C21.8061 18.6409 21.2729 20.302 21.4234 22.1174C21.6649 25.028 24.2878 27.7708 27.2372 28.1835C27.6315 28.2387 27.9678 28.3679 28.1851 28.5812C28.4153 28.807 28.4934 29.1104 28.3878 29.4418C28.3297 29.6241 28.2069 29.7712 28.0936 29.8901C28.0422 29.9439 27.9954 29.9899 27.9515 30.0331C27.8862 30.0972 27.8271 30.1551 27.769 30.2236L27.7083 30.2951H27.6148H27.2122V30.3652L26.952 30.288C26.7397 30.2249 26.5284 30.1714 26.3128 30.1167C26.182 30.0836 26.0496 30.0501 25.9144 30.0138C25.5635 29.9195 25.2085 29.81 24.8726 29.6499C22.8982 28.7082 21.2451 27.2464 20.2726 25.3616C19.2985 23.4737 19.0148 21.1753 19.7585 18.5796C19.9166 18.0281 20.1143 17.4839 20.3093 16.9472C20.3962 16.708 20.4827 16.4703 20.5647 16.2341C20.678 15.9081 20.7972 15.5885 20.9156 15.2714C21.1755 14.5745 21.4309 13.8901 21.6081 13.1789C21.7816 12.4843 21.8726 11.777 21.9683 11.033C22.0121 10.6928 22.0569 10.3448 22.111 9.98687L22.1679 9.6103L22.448 9.8667C23.2032 10.5583 23.5724 11.3869 23.8089 12.2404C23.9267 12.6656 24.0126 13.1006 24.0959 13.5272L24.1039 13.568C24.1516 13.8126 24.1987 14.0542 24.2509 14.2924C24.3075 14.1633 24.3672 14.0112 24.4292 13.8392C24.5905 13.391 24.7627 12.8187 24.9293 12.1898C25.2628 10.9316 25.5705 9.46036 25.7233 8.32698C26.0238 6.10168 25.8166 3.90166 25.4753 1.66263L25.4041 1.1958L25.7907 1.46378C29.7422 4.20234 31.7067 8.27485 33.5055 12.4619C34.0998 11.0267 33.8404 9.59872 33.3682 8.1198L33.3302 8.00055L33.4187 7.91247C33.4651 7.86624 33.5104 7.82114 33.5544 7.77621L33.6855 7.64219L33.8289 7.76277C33.9801 7.8898 34.1338 8.00771 34.2916 8.12867C34.3855 8.2007 34.4808 8.27379 34.5778 8.35048C34.8312 8.55092 35.0836 8.76727 35.299 9.02089C37.1582 11.2127 38.2991 13.7529 38.8228 16.5657C38.8867 16.909 38.9401 17.2572 38.993 17.6016C39.0191 17.7719 39.045 17.9414 39.0721 18.1088L39.0747 18.125V18.1415V20.0725V20.0965L39.0692 20.1199C39.0553 20.1781 39.0415 20.2325 39.0282 20.2851C39.0032 20.3833 38.9799 20.4748 38.9616 20.5723C38.5268 22.8797 37.7761 24.9502 36.5183 26.6248C35.258 28.3027 33.4966 29.5721 31.0614 30.2869L31.0336 30.2951H31.0046H30.5198H30.4679L30.4224 30.27C30.2132 30.1547 29.9934 30.0121 29.8463 29.8102C29.6905 29.5961 29.6281 29.3314 29.7038 29.0077C29.7757 28.7024 29.9388 28.5014 30.1574 28.3756C30.3645 28.2563 30.6098 28.2114 30.8369 28.1843C31.9949 28.0458 32.9226 27.4811 33.7396 26.634C35.5316 24.7729 36.5323 22.7845 36.8665 20.6857C37.2012 18.585 36.8707 16.3576 35.9738 14.0171ZM35.9738 14.0171L36.163 13.9438" stroke="#FDC022" stroke-width="0.5"/>
  </g>
  <defs>
    <clipPath id="clip0_287_367">
      <rect width="146" height="31" fill="white"/>
    </clipPath>
  </defs>
</svg>
