<svg xmlns="http://www.w3.org/2000/svg" width="135" height="135" viewBox="0 0 135 135" fill="none">
  <circle cx="67.5" cy="67.5" r="67.5" fill="#302D3D"/>
  <path d="M61.4477 106.793L62.1464 107V106.812H63.2276H63.4785L63.6414 106.621C63.7975 106.438 63.9561 106.283 64.1314 106.112C64.2495 105.997 64.3752 105.874 64.513 105.73C64.8173 105.412 65.1471 105.018 65.303 104.531C65.5868 103.645 65.377 102.833 64.7589 102.229C64.1754 101.659 63.2722 101.314 62.2135 101.166C54.2937 100.063 47.2507 92.7281 46.602 84.9451C46.198 80.0905 47.6296 75.6489 49.7358 71.2231C49.8554 72.7971 49.9749 74.3801 50.0969 75.9933C50.2106 77.4963 50.3262 79.0255 50.4456 80.5977L50.5547 82.037L51.4231 80.885C59.9812 69.529 62.8847 56.66 64.3065 43.2804C66.7671 47.5136 69.1285 51.7631 71.3069 56.0985C73.7143 60.8959 75.5208 65.9168 76.3445 71.3547L76.4915 72.3261L77.2368 71.6874C80.8567 68.5847 82.9045 64.8042 84.3869 60.396C84.4385 60.5061 84.4892 60.6141 84.5391 60.7203C84.9784 61.6551 85.3535 62.4531 85.6734 63.2846C88.0816 69.5432 88.9692 75.4992 88.0705 81.1167C87.173 86.7289 84.486 92.0459 79.674 97.0225C77.4801 99.2879 74.9889 100.798 71.8795 101.168C71.2697 101.241 70.6111 101.361 70.0548 101.68C69.468 102.016 69.0298 102.554 68.8368 103.37C68.6336 104.236 68.8011 104.943 69.2195 105.516C69.6144 106.056 70.2046 106.437 70.7666 106.745L70.8888 106.812H71.0282H72.33H72.4077L72.4824 106.791C79.0215 104.879 83.7513 101.485 87.1355 96.9981C90.513 92.5202 92.5287 86.9835 93.6962 80.8134C93.7454 80.5528 93.8079 80.308 93.875 80.0454C93.9109 79.9049 93.9479 79.7594 93.9852 79.6036L94 79.5412V79.4769V74.3134V74.2693L93.993 74.2259C93.9203 73.7783 93.8506 73.3252 93.7805 72.8697C93.6385 71.9487 93.4951 71.0177 93.3235 70.0997C91.9174 62.5781 88.8538 55.7855 83.8613 49.9246C83.283 49.2464 82.6052 48.6678 81.9246 48.1319C81.6643 47.9268 81.4084 47.7313 81.1562 47.5387C80.7326 47.2153 80.3198 46.9 79.9138 46.5603L79.5288 46.2379L79.1766 46.5962C79.0585 46.7164 78.937 46.837 78.8122 46.9606L78.5746 47.1961L78.6767 47.515C79.9446 51.4697 80.6411 55.2881 79.0455 59.1259C74.2153 47.9296 68.9401 37.0396 58.3294 29.7166L57.2911 29L57.4824 30.2483C58.3989 36.2356 58.9551 42.1185 58.1482 48.069C57.7381 51.0997 56.9117 55.034 56.0163 58.3984C55.5688 60.0801 55.1064 61.6104 54.6734 62.8089C54.507 63.2687 54.3467 63.6755 54.1946 64.0207C54.0544 63.3837 53.9278 62.7377 53.7998 62.0837L53.7784 61.9747C53.5547 60.8338 53.3241 59.6706 53.0076 58.5337C52.3725 56.2514 51.3813 54.0357 49.3533 52.1863L48.6012 51.5007L48.4483 52.5076C48.3031 53.4648 48.1828 54.3952 48.0652 55.3051C47.8082 57.2946 47.5639 59.1859 47.098 61.0432C46.6221 62.945 45.9364 64.775 45.2384 66.6386C44.9206 67.4865 44.6004 68.3412 44.2962 69.2129C44.076 69.8445 43.8438 70.4801 43.6105 71.1197C43.0869 72.5549 42.5559 74.0102 42.1314 75.4848C40.1344 82.4258 40.8963 88.572 43.5119 93.6203C46.1233 98.6603 50.5623 102.569 55.8641 105.087C56.766 105.515 57.7193 105.808 58.6613 106.06C59.0246 106.157 59.3801 106.247 59.7312 106.336C60.3103 106.482 60.8777 106.625 61.4477 106.793Z" fill="#FDC022"/>
  <path d="M85.6734 63.2846C85.3535 62.4531 84.9784 61.6551 84.5391 60.7203C84.4892 60.6141 84.4385 60.5061 84.3869 60.396C82.9045 64.8042 80.8567 68.5847 77.2368 71.6874L76.4915 72.3261L76.3445 71.3547C75.5208 65.9168 73.7143 60.8959 71.3069 56.0985C69.1285 51.7631 66.7671 47.5136 64.3065 43.2804C62.8847 56.66 59.9812 69.529 51.4231 80.885L50.5547 82.037L50.4456 80.5977C50.3262 79.0255 50.2106 77.4963 50.0969 75.9933C49.9749 74.3801 49.8554 72.7971 49.7358 71.2231C47.6296 75.6489 46.198 80.0905 46.602 84.9451C47.2507 92.7281 54.2937 100.063 62.2135 101.166C63.2722 101.314 64.1754 101.659 64.7589 102.229C65.377 102.833 65.5868 103.645 65.303 104.531C65.1471 105.018 64.8173 105.412 64.513 105.73C64.3752 105.874 64.2495 105.997 64.1314 106.112C63.9561 106.283 63.7975 106.438 63.6414 106.621L63.4785 106.812H63.2276H62.1464V107L61.4477 106.793C60.8777 106.625 60.3103 106.482 59.7312 106.336C59.3801 106.247 59.0246 106.157 58.6613 106.06C57.7193 105.808 56.766 105.515 55.8641 105.087C50.5623 102.569 46.1233 98.6603 43.5119 93.6203C40.8963 88.572 40.1344 82.4258 42.1314 75.4848C42.5559 74.0102 43.0869 72.5549 43.6105 71.1197C43.8438 70.4801 44.076 69.8445 44.2962 69.2129C44.6004 68.3412 44.9206 67.4865 45.2384 66.6386C45.9364 64.775 46.6221 62.945 47.098 61.0432C47.5639 59.1859 47.8082 57.2946 48.0652 55.3051C48.1828 54.3952 48.3031 53.4648 48.4483 52.5076L48.6012 51.5007L49.3533 52.1863C51.3813 54.0357 52.3725 56.2514 53.0076 58.5337C53.3241 59.6706 53.5547 60.8338 53.7784 61.9747L53.7998 62.0837C53.9278 62.7377 54.0544 63.3837 54.1946 64.0207C54.3467 63.6755 54.507 63.2687 54.6734 62.8089C55.1064 61.6104 55.5688 60.0801 56.0163 58.3984C56.9117 55.034 57.7381 51.0997 58.1482 48.069C58.9551 42.1185 58.3989 36.2356 57.4824 30.2483L57.2911 29L58.3294 29.7166C68.9401 37.0396 74.2153 47.9296 79.0455 59.1259C80.6411 55.2881 79.9446 51.4697 78.6767 47.515L78.5746 47.1961L78.8122 46.9606C78.937 46.837 79.0585 46.7164 79.1766 46.5962L79.5288 46.2379L79.9138 46.5603C80.3198 46.9 80.7326 47.2153 81.1562 47.5387C81.4084 47.7313 81.6643 47.9268 81.9246 48.1319C82.6052 48.6678 83.283 49.2464 83.8613 49.9246C88.8538 55.7855 91.9174 62.5781 93.3235 70.0997C93.4951 71.0177 93.6385 71.9487 93.7805 72.8697C93.8506 73.3252 93.9203 73.7783 93.993 74.2259L94 74.2693V74.3134V79.4769V79.5412L93.9852 79.6036C93.9479 79.7594 93.9109 79.9049 93.875 80.0454C93.8079 80.308 93.7454 80.5528 93.6962 80.8134C92.5287 86.9835 90.513 92.5202 87.1355 96.9981C83.7513 101.485 79.0215 104.879 72.4824 106.791L72.4077 106.812H72.33H71.0282H70.8888L70.7666 106.745C70.2046 106.437 69.6144 106.056 69.2195 105.516C68.8011 104.943 68.6336 104.236 68.8368 103.37C69.0298 102.554 69.468 102.016 70.0548 101.68C70.6111 101.361 71.2697 101.241 71.8795 101.168C74.9889 100.798 77.4801 99.2879 79.674 97.0225C84.486 92.0459 87.173 86.7289 88.0705 81.1167C88.9692 75.4992 88.0817 69.5432 85.6734 63.2846ZM85.6734 63.2846L86.1813 63.0885" stroke="#FDC022" stroke-width="0.5"/>
</svg>
