<svg xmlns="http://www.w3.org/2000/svg" width="146" height="31" viewBox="0 0 146 31" fill="none"><g clip-path="url(#a)"><path d="M4.522 29.48h.5V27.144c.786.186 1.627.278 2.521.278 1.014 0 1.916-.307 2.684-.925.782-.617 1.362-1.515 1.762-2.651.403-1.144.597-2.53.597-4.144 0-2.28-.33-4.035-1.075-5.167-.72-1.117-1.695-1.735-2.91-1.737-1.037-.014-2.046.326-3.018.982a7.013 7.013 0 0 0-.561.412v-2.555a8.058 8.058 0 0 1 2.058-1.178l.006-.003c.784-.325 1.664-.492 2.647-.492 1.47 0 2.656.405 3.593 1.189.958.801 1.697 1.921 2.2 3.389.506 1.474.764 3.171.764 5.1 0 2.295-.403 4.182-1.18 5.683-.785 1.5-1.836 2.615-3.15 3.365-1.325.756-2.814 1.138-4.478 1.138a21.216 21.216 0 0 1-3.841-.346h.88ZM4.022 17v8.78a10.247 10.247 0 0 1-1.513-.756l-.417-.251-.263.41L.5 27.268V.5h1.487c.886 0 1.35.219 1.575.503l.005.007.005.006c.263.311.45.904.45 1.9v8.251c-.538.463-1.007.93-1.404 1.4l-.15.18.041.231.67 3.712.25 1.387.593-1.078Zm0-4.476v2.664a7.146 7.146 0 0 0-.08.1l-.406-2.252c.15-.17.312-.34.486-.512Zm0 15.957H.912l1.503-2.357c.526.289 1.062.53 1.607.723v1.634ZM46.152 10.798l.007.01c.195.282.342.643.43 1.095-.33.298-.642.61-.938.937l-.128.143v4.557l.941.234c.069-.129.14-.254.215-.376v12.17c-.187.023-.39.042-.609.056h-.008l-.008.002a11.657 11.657 0 0 1-2.334 0l-.008-.001h-.008a12.309 12.309 0 0 1-.629-.058v-19.44h1.488c.838 0 1.318.258 1.589.671Zm.37 2.572.157-.164v2.522a7.36 7.36 0 0 0-.156.179V13.37Zm3.075.263a8.392 8.392 0 0 0-1.919 1.162v-1.844c0-.222-.008-.438-.026-.645.58-.48 1.213-.915 1.902-1.306l.004-.002a7.552 7.552 0 0 1 3.846-1.035c1.193 0 2.104.28 2.779.795l.003.003c.714.535 1.247 1.262 1.595 2.2l.002.006c.367.953.555 2.047.555 3.288v9.28c0 .745.056 1.46.17 2.141.088.534.232 1.023.438 1.464a4.246 4.246 0 0 1-.809.392 4.131 4.131 0 0 1-1.448.254c-.825 0-1.272-.221-1.504-.53-.276-.383-.45-.994-.45-1.906V17.315c0-1.31-.167-2.358-.572-3.06-.445-.799-1.278-1.131-2.3-1.131-.718 0-1.474.176-2.263.508l-.003.001Z" fill="#FDC022" stroke="#FDC022"></path><path d="M70.007 30c-.378.069-.777.116-1.196.144-.406.027-.791.04-1.156.04-.365 0-.764-.013-1.196-.04A10.682 10.682 0 0 1 65.242 30V2.386l.284-.244h4.44v2.1c0 1.074.007 2.155.02 3.243a256.5 256.5 0 0 1 .021 3.182V30ZM81.83 2.143c.095.272.156.577.183.917.04.34.06.66.06.959 0 .775-.216 1.34-.649 1.693-.432.34-1.094.51-1.987.51h-5.779c-1.095 0-2.102-.007-3.021-.02-.906-.028-1.75-.055-2.535-.082V2.142H81.83Zm-2.21 11.89c.081.299.135.639.162 1.02.04.38.06.7.06.958 0 .272-.02.591-.06.959a5.749 5.749 0 0 1-.162 1.02h-8.09c-.515 0-1.076-.008-1.684-.021-.608-.014-1.156-.027-1.642-.04v-3.835c.486-.014 1.034-.027 1.642-.04.608-.014 1.17-.021 1.683-.021h8.09ZM93.485 17.662h-.669c-.297-.014-.602-.02-.912-.02-.298-.014-.521-.02-.67-.02-.46 0-.932.006-1.419.02-.473.013-.947.02-1.42.02v-4.079c.474 0 .947.007 1.42.02.487.014.96.02 1.42.02h.669c.31-.013.615-.02.912-.02.31-.013.534-.02.67-.02h6.407c.136 0 .351.007.649.02.311 0 .622.007.933.02h.669c.473 0 .947-.006 1.419-.02.473-.013.94-.02 1.4-.02v4.079c-.46 0-.927-.007-1.4-.02-.472-.014-.946-.02-1.419-.02-.136 0-.359.006-.669.02-.311 0-.622.006-.933.02h-7.057Zm-2.21 12.339c-.379.068-.784.115-1.217.142-.432.028-.831.041-1.196.041-.325 0-.71-.013-1.156-.04A9.33 9.33 0 0 1 86.51 30V2.14A9.33 9.33 0 0 1 87.706 2c.446-.027.831-.041 1.156-.041.365 0 .764.014 1.196.04.433.028.838.076 1.217.144v8.463c0 .571-.006 1.081-.02 1.53-.014.435-.02.931-.02 1.489v3.997c0 .544.006 1.04.02 1.489.014.449.02.959.02 1.53V30Zm10.828-9.361c0-.572.007-1.081.021-1.53.013-.449.02-.945.02-1.489v-3.997c0-.558-.007-1.054-.02-1.489a49.58 49.58 0 0 1-.021-1.53V2.142a9.952 9.952 0 0 1 1.176-.143c.433-.027.825-.041 1.177-.041.338 0 .73.014 1.176.04a9.99 9.99 0 0 1 1.216.144V30a9.925 9.925 0 0 1-1.176.142c-.419.028-.811.041-1.176.041-.365 0-.764-.013-1.196-.04a10.68 10.68 0 0 1-1.197-.143V20.64ZM114.078 2.142c.351-.068.75-.116 1.196-.143.446-.027.832-.041 1.156-.041.365 0 .757.014 1.176.04.433.028.838.076 1.217.144V30a10.69 10.69 0 0 1-1.217.142c-.419.028-.811.041-1.176.041-.324 0-.71-.013-1.156-.04a9.322 9.322 0 0 1-1.196-.143V2.14ZM144.569 10.422c0 1.264-.236 2.4-.709 3.406-.46 1.006-1.082 1.849-1.866 2.529a7.661 7.661 0 0 1-2.555 1.509c.689.231 1.271.673 1.744 1.326a8.2 8.2 0 0 1 1.176 2.182l1.683 4.507c.284.775.568 1.387.852 1.836.284.448.615.829.993 1.142-.31.435-.77.788-1.379 1.06a4.634 4.634 0 0 1-1.825.388c-.878 0-1.52-.245-1.926-.734-.405-.49-.783-1.21-1.135-2.162l-1.907-5.262c-.31-.884-.743-1.632-1.297-2.244-.554-.611-1.447-.917-2.677-.917h-4.928v-3.671a178.44 178.44 0 0 1 2.028-.082 140.454 140.454 0 0 1 4.117-.082c1.257 0 2.224-.23 2.899-.693.69-.476 1.163-1.074 1.42-1.795a6.32 6.32 0 0 0 .405-2.243c0-.802-.134-1.564-.405-2.284-.257-.721-.73-1.306-1.42-1.754-.675-.463-1.642-.694-2.899-.694h-2.008c-.783-.013-1.513-.027-2.19-.04V30c-.378.069-.783.116-1.217.143-.418.028-.811.041-1.176.041-.31 0-.689-.013-1.135-.04a9.361 9.361 0 0 1-1.197-.143V2.366l.284-.265 4.563-.082c1.487-.04 2.94-.061 4.36-.061 1.879 0 3.515.32 4.907.959 1.406.639 2.494 1.584 3.264 2.834.771 1.251 1.156 2.808 1.156 4.67Z" fill="#A394DD"></path><path d="m26.952 30.288.26.077v-.07h.496l.061-.071c.058-.069.117-.127.183-.19l.142-.144c.113-.119.236-.266.294-.448a.808.808 0 0 0-.203-.86c-.217-.214-.553-.343-.948-.399-2.95-.412-5.572-3.155-5.814-6.066-.15-1.815.383-3.476 1.167-5.131l.135 1.784.13 1.722.04.538.324-.43c3.187-4.248 4.268-9.06 4.798-14.064a89.847 89.847 0 0 1 2.607 4.794c.896 1.794 1.569 3.671 1.876 5.705l.054.363.278-.238c1.348-1.16 2.11-2.575 2.663-4.223l.056.121c.164.35.304.648.423.96.897 2.34 1.227 4.567.893 6.668-.335 2.099-1.335 4.087-3.127 5.948-.817.847-1.745 1.412-2.903 1.55-.227.027-.473.072-.68.192a.94.94 0 0 0-.453.632c-.076.323-.014.588.142.802.147.202.367.345.576.46l.046.025H31.034l.027-.008c2.436-.715 4.197-1.984 5.457-3.662 1.258-1.675 2.009-3.745 2.444-6.053.018-.097.041-.189.066-.287.014-.052.027-.107.041-.165l.006-.024V18.125l-.003-.016-.079-.507c-.053-.345-.106-.693-.17-1.036-.524-2.813-1.665-5.353-3.524-7.545a4.998 4.998 0 0 0-.721-.67c-.097-.077-.193-.15-.286-.222a13.1 13.1 0 0 1-.463-.366l-.144-.12-.13.133-.136.136-.089.089.038.119c.472 1.479.732 2.907.137 4.342-1.798-4.187-3.763-8.26-7.714-10.998l-.387-.268.071.467c.342 2.239.549 4.439.248 6.664-.152 1.133-.46 2.605-.794 3.863a20.797 20.797 0 0 1-.5 1.65 7.373 7.373 0 0 1-.178.452c-.052-.238-.1-.48-.147-.724l-.008-.04c-.083-.427-.17-.862-.287-1.288-.237-.853-.606-1.682-1.361-2.373l-.28-.257-.057.377c-.054.358-.099.706-.143 1.046-.095.744-.186 1.451-.36 2.146-.177.711-.433 1.396-.692 2.092-.119.317-.238.637-.351.963-.082.236-.169.474-.256.713-.195.537-.392 1.081-.55 1.633-.744 2.595-.46 4.894.514 6.782.972 1.884 2.625 3.346 4.6 4.288.335.16.69.27 1.041.364l.399.103c.215.054.427.108.639.171Z" fill="#FDC022"></path><path d="M35.974 14.017c-.12-.31-.259-.61-.423-.959l-.056-.121c-.552 1.648-1.315 3.062-2.663 4.223l-.278.238-.054-.363c-.307-2.034-.98-3.911-1.876-5.705a89.847 89.847 0 0 0-2.607-4.794c-.53 5.004-1.611 9.816-4.798 14.063l-.324.43-.04-.537-.13-1.722-.135-1.784c-.784 1.655-1.317 3.316-1.167 5.131.242 2.911 2.865 5.654 5.814 6.066.395.056.73.185.948.398.23.226.308.53.203.86-.058.183-.181.33-.294.45l-.143.142c-.065.064-.124.122-.182.19l-.06.072h-.497v.07l-.26-.077c-.212-.063-.424-.117-.64-.171l-.398-.103a6.065 6.065 0 0 1-1.041-.364c-1.975-.942-3.628-2.404-4.6-4.288-.974-1.888-1.258-4.187-.514-6.782.158-.552.355-1.096.55-1.633.087-.239.174-.477.256-.713.113-.326.232-.646.35-.963.26-.697.516-1.38.693-2.092.174-.695.265-1.402.36-2.146.044-.34.089-.688.143-1.046l.057-.377.28.257c.755.691 1.124 1.52 1.36 2.373.119.426.205.86.288 1.287l.008.041c.048.245.095.486.147.724.056-.129.116-.28.178-.453.162-.448.334-1.02.5-1.65.334-1.257.642-2.729.794-3.862.3-2.225.094-4.425-.248-6.664l-.07-.467.386.268c3.951 2.738 5.916 6.81 7.714 10.998.595-1.435.335-2.863-.137-4.342L33.33 8l.089-.088c.046-.046.091-.09.135-.136l.131-.134.144.12c.151.128.305.246.463.367l.286.221c.253.2.506.417.721.67 1.86 2.193 3 4.733 3.524 7.546.064.343.117.691.17 1.036.026.17.052.34.08.507l.002.016V20.096l-.006.024-.04.165c-.026.098-.05.19-.067.287-.435 2.308-1.186 4.378-2.444 6.053-1.26 1.678-3.021 2.947-5.457 3.662l-.027.008H30.468l-.046-.025c-.209-.115-.429-.258-.576-.46-.155-.214-.218-.479-.142-.802a.94.94 0 0 1 .453-.632c.207-.12.453-.165.68-.192 1.158-.138 2.086-.703 2.903-1.55 1.792-1.861 2.792-3.85 3.127-5.948.334-2.101.004-4.328-.893-6.669Zm0 0 .189-.073" stroke="#FDC022" stroke-width="0.5"></path></g><defs><clipPath id="a"><path fill="#fff" d="M0 0h146v31H0z"></path></clipPath></defs></svg>